SplineFontDB: 3.2
FontName: X2
FullName: X2
FamilyName: X2
Weight: Regular
Copyright: X2 remake by NR74W (2021).\nOriginal font design by Studio Liverpool (2007).
UComments: "2021-3-27: Created with FontForge (http://fontforge.org)"
FontLog: "The X2 font from WipEout Pulse, released for the PlayStation Portable in 2007.+AAoA-Made by Sony Computer Entertainment Europe Studio Liverpool.+AAoACgAA-Version 1.0.+AAoA-Homepage: https://github.com/NR74W/WipEout-Fonts+AAoACgAA-The main font of WipEout Pulse, the prototype of WipEout HD also used it.+AAoA-X2 was the project codename of WipEout Pulse.+AAoA-Has at least two versions, the few old characters can be found in the Private Use Area.+AAoACgAA--- NR74W (2021)"
Version: 1.00
ItalicAngle: 0
UnderlinePosition: -146
UnderlineWidth: 75
Ascent: 800
Descent: 200
InvalidEm: 0
LayerCount: 2
Layer: 0 0 "Arri+AOgA-re" 1
Layer: 1 0 "Avant" 0
XUID: [1021 17 266829378 23954]
StyleMap: 0x0040
FSType: 0
OS2Version: 0
OS2_WeightWidthSlopeOnly: 0
OS2_UseTypoMetrics: 1
CreationTime: 1616806074
ModificationTime: 1634741662
PfmFamily: 81
TTFWeight: 400
TTFWidth: 5
LineGap: 94
VLineGap: 0
OS2TypoAscent: 0
OS2TypoAOffset: 1
OS2TypoDescent: 0
OS2TypoDOffset: 1
OS2TypoLinegap: 94
OS2WinAscent: 0
OS2WinAOffset: 1
OS2WinDescent: 0
OS2WinDOffset: 1
HheadAscent: 0
HheadAOffset: 1
HheadDescent: 0
HheadDOffset: 1
OS2Vendor: 'PfEd'
Lookup: 3 0 0 "'salt' lookup" { "Subtable 'salt'"  } ['salt' ('DFLT' <'dflt' > 'latn' <'dflt' > ) ]
MarkAttachClasses: 1
DEI: 91125
LangName: 1033
Encoding: UnicodeBmp
Compacted: 1
UnicodeInterp: none
NameList: AGL For New Fonts
DisplaySize: -48
AntiAlias: 1
FitToEm: 0
WinInfo: 0 32 10
BeginPrivate: 6
BlueValues 21 [0 0 580 580 808 808]
StemSnapH 4 [84]
StemSnapV 4 [80]
StdHW 4 [84]
StdVW 4 [80]
OtherBlues 11 [-216 -216]
EndPrivate
TeXData: 1 0 0 367001 183500 122333 608174 1048576 122333 783286 444596 497025 792723 393216 433062 380633 303038 157286 324010 404750 52429 2506097 1059062 262144
BeginChars: 65536 203

StartChar: A
Encoding: 65 65 0
Width: 700
VWidth: 1024
Flags: W
HStem: 0 21G<0 80 450 530> 248 84<80 450> 496 84<80 450>
VStem: 0 80<0 248 332 496> 450 80<0 248 332 496>
LayerCount: 2
Fore
SplineSet
80 332 m 25
 450 332 l 25
 450 496 l 25
 80 496 l 25
 80 332 l 25
0 0 m 25
 0 496 l 1
 80 580 l 25
 450 580 l 1
 530 496 l 25
 530 0 l 1
 450 0 l 25
 450 248 l 25
 80 248 l 25
 80 0 l 25
 0 0 l 25
EndSplineSet
Validated: 1
EndChar

StartChar: H
Encoding: 72 72 3
Width: 700
VWidth: 1024
Flags: W
HStem: 0 21G<0 80 450 530> 248 84<80 450> 560 20G<0 80 450 530>
VStem: 0 80<0 248 332 580> 450 80<0 248 332 580>
LayerCount: 2
Fore
SplineSet
0 0 m 1
 0 580 l 1
 80 580 l 17
 80 332 l 1
 450 332 l 1
 450 580 l 9
 530 580 l 17
 530 0 l 1
 450 0 l 25
 450 248 l 25
 80 248 l 25
 80 0 l 25
 0 0 l 1
EndSplineSet
Validated: 1
EndChar

StartChar: N
Encoding: 78 78 4
Width: 700
VWidth: 1024
Flags: W
HStem: 0 21G<0 80 450 530> 496 84<80 450>
VStem: 0 80<0 496> 450 80<0 496>
LayerCount: 2
Fore
SplineSet
0 0 m 25
 0 496 l 1
 80 580 l 25
 450 580 l 1
 530 496 l 25
 530 0 l 1
 450 0 l 1
 450 496 l 25
 80 496 l 25
 80 0 l 1
 0 0 l 25
EndSplineSet
Validated: 1
EndChar

StartChar: M
Encoding: 77 77 5
Width: 750
VWidth: 1024
Flags: W
HStem: 0 21G<0 80 250 330 500 580> 496 84<80 250 330 500>
VStem: 0 80<0 496> 250 80<0 496> 500 80<0 496>
CounterMasks: 1 38
LayerCount: 2
Fore
SplineSet
0 0 m 25
 0 496 l 1
 80 580 l 25
 500 580 l 1
 580 496 l 25
 580 0 l 1
 500 0 l 1
 500 496 l 1
 330 496 l 9
 330 0 l 1
 250 0 l 1
 250 496 l 1
 80 496 l 1
 80 0 l 1
 0 0 l 25
EndSplineSet
Validated: 1
EndChar

StartChar: O
Encoding: 79 79 6
Width: 700
VWidth: 1024
Flags: W
HStem: 0 84<80 450> 496 84<80 450>
VStem: 0 80<84 496> 450 80<84 496>
LayerCount: 2
Fore
SplineSet
0 84 m 1
 0 496 l 1
 80 580 l 25
 450 580 l 1
 530 496 l 1
 530 84 l 9
 450 0 l 1
 80 0 l 1
 0 84 l 1
80 84 m 1
 450 84 l 1
 450 496 l 1
 80 496 l 1
 80 84 l 1
EndSplineSet
Validated: 1
EndChar

StartChar: P
Encoding: 80 80 7
Width: 700
VWidth: 1024
Flags: W
HStem: 0 21G<0 80> 216 84<80 450> 496 84<0 450>
VStem: 0 80<0 216> 450 80<300 496>
LayerCount: 2
Fore
SplineSet
0 0 m 1
 0 300 l 1
 450 300 l 1
 450 496 l 1
 0 496 l 9
 0 580 l 1
 450 580 l 1
 530 496 l 1
 530 300 l 1
 450 216 l 1
 80 216 l 1
 80 0 l 25
 0 0 l 1
EndSplineSet
Validated: 1
EndChar

StartChar: U
Encoding: 85 85 8
Width: 700
VWidth: 1024
Flags: W
HStem: 0 84<80 450> 560 20G<0 80 450 530>
VStem: 0 80<84 580> 450 80<84 580>
LayerCount: 2
Fore
SplineSet
0 84 m 1
 0 580 l 25
 80 580 l 1
 80 84 l 25
 450 84 l 25
 450 580 l 1
 530 580 l 1
 530 84 l 25
 450 0 l 1
 80 0 l 25
 0 84 l 1
EndSplineSet
Validated: 1
EndChar

StartChar: V
Encoding: 86 86 9
Width: 700
VWidth: 1024
Flags: W
HStem: 0 84<88 442> 560 20G<0 19.0476 510.952 530>
VStem: 0 80<91 496> 450 80<91 496>
LayerCount: 2
Fore
SplineSet
0 84 m 1
 0 580 l 1
 80 496 l 1
 80 91 l 1
 88 84 l 1
 442 84 l 1
 450 91 l 1
 450 496 l 1
 530 580 l 1
 530 84 l 1
 450 0 l 1
 80 0 l 25
 0 84 l 1
EndSplineSet
Validated: 1
AlternateSubs2: "Subtable 'salt'" uniE000
EndChar

StartChar: p
Encoding: 112 112 10
Width: 700
VWidth: 1024
Flags: W
HStem: -216 21G<0 80> 0 84<80 450> 496 84<0 450>
VStem: 0 80<-216 0> 450 80<84 496>
LayerCount: 2
Fore
SplineSet
0 -216 m 1
 0 84 l 1
 450 84 l 1
 450 496 l 1
 0 496 l 9
 0 580 l 1
 450 580 l 1
 530 496 l 1
 530 84 l 1
 450 0 l 1
 80 0 l 1
 80 -216 l 25
 0 -216 l 1
EndSplineSet
Validated: 1
EndChar

StartChar: uniE000
Encoding: 57344 57344 11
Width: 700
VWidth: 1024
Flags: W
HStem: 0 92<192 338> 560 20G<0 19.0476 510.952 530>
VStem: 0 80<206 496> 450 80<206 496>
DStem2: 80 206 0 194 0.703434 -0.710761<0 159.811> 338 92 338 0 0.703434 0.710761<0 159.811>
LayerCount: 2
Fore
SplineSet
0 194 m 1
 0 580 l 1
 80 496 l 1
 80 206 l 1
 192 92 l 1
 338 92 l 1
 450 206 l 1
 450 496 l 1
 530 580 l 1
 530 194 l 1
 338 0 l 1
 192 0 l 25
 0 194 l 1
EndSplineSet
Validated: 1
EndChar

StartChar: o
Encoding: 111 111 12
Width: 700
VWidth: 1024
Flags: W
HStem: 0 84<80 450> 496 84<80 450>
VStem: 0 80<84 496> 450 80<84 496>
LayerCount: 2
Fore
SplineSet
0 84 m 1
 0 496 l 1
 80 580 l 25
 450 580 l 1
 530 496 l 1
 530 84 l 9
 450 0 l 1
 80 0 l 1
 0 84 l 1
80 84 m 1
 450 84 l 1
 450 496 l 1
 80 496 l 1
 80 84 l 1
EndSplineSet
Validated: 1
EndChar

StartChar: J
Encoding: 74 74 13
Width: 700
VWidth: 1024
Flags: W
HStem: 0 84<80 450> 560 20G<450 530>
VStem: 0 80<84 198> 450 80<84 580>
LayerCount: 2
Fore
SplineSet
0 84 m 1
 0 198 l 9
 80 198 l 17
 80 84 l 1
 450 84 l 1
 450 580 l 1
 530 580 l 17
 530 84 l 1
 450 0 l 1
 80 0 l 25
 0 84 l 1
EndSplineSet
Validated: 1
EndChar

StartChar: m
Encoding: 109 109 14
Width: 750
VWidth: 1024
Flags: W
HStem: 0 21G<0 80 250 330 500 580> 496 84<80 250 330 500>
VStem: 0 80<0 496> 250 80<0 496> 500 80<0 496>
CounterMasks: 1 38
LayerCount: 2
Fore
SplineSet
0 0 m 25
 0 496 l 1
 80 580 l 25
 500 580 l 1
 580 496 l 25
 580 0 l 1
 500 0 l 1
 500 496 l 1
 330 496 l 9
 330 0 l 1
 250 0 l 1
 250 496 l 1
 80 496 l 1
 80 0 l 1
 0 0 l 25
EndSplineSet
Validated: 1
EndChar

StartChar: n
Encoding: 110 110 15
Width: 700
VWidth: 1024
Flags: W
HStem: 0 21G<0 80 450 530> 496 84<80 450>
VStem: 0 80<0 496> 450 80<0 496>
LayerCount: 2
Fore
SplineSet
0 0 m 25
 0 496 l 1
 80 580 l 25
 450 580 l 1
 530 496 l 25
 530 0 l 1
 450 0 l 1
 450 496 l 25
 80 496 l 25
 80 0 l 1
 0 0 l 25
EndSplineSet
Validated: 1
EndChar

StartChar: u
Encoding: 117 117 16
Width: 700
VWidth: 1024
Flags: W
HStem: 0 84<80 450> 560 20G<0 80 450 530>
VStem: 0 80<84 580> 450 80<84 580>
LayerCount: 2
Fore
SplineSet
0 84 m 1
 0 580 l 25
 80 580 l 1
 80 84 l 25
 450 84 l 25
 450 580 l 1
 530 580 l 1
 530 84 l 25
 450 0 l 1
 80 0 l 25
 0 84 l 1
EndSplineSet
Validated: 1
EndChar

StartChar: v
Encoding: 118 118 17
Width: 700
VWidth: 1024
Flags: W
HStem: 0 84<88 442> 560 20G<0 19.0476 510.952 530>
VStem: 0 80<91 496> 450 80<91 496>
LayerCount: 2
Fore
SplineSet
0 84 m 1
 0 580 l 1
 80 496 l 1
 80 91 l 1
 88 84 l 1
 442 84 l 1
 450 91 l 1
 450 496 l 1
 530 580 l 1
 530 84 l 1
 450 0 l 1
 80 0 l 25
 0 84 l 1
EndSplineSet
Validated: 1
AlternateSubs2: "Subtable 'salt'" uniE000
EndChar

StartChar: e
Encoding: 101 101 18
Width: 670
VWidth: 1024
Flags: W
HStem: 0 84<80 530> 248 84<80 450> 496 84<80 450>
VStem: 0 80<84 248 332 496> 450 80<332 496>
CounterMasks: 1 e0
LayerCount: 2
Fore
SplineSet
0 84 m 1
 0 496 l 1
 80 580 l 25
 450 580 l 1
 530 496 l 1
 530 332 l 9
 450 248 l 1
 80 248 l 1
 80 84 l 1
 530 84 l 1
 530 0 l 1
 80 0 l 1
 0 84 l 1
80 332 m 25
 450 332 l 25
 450 496 l 25
 80 496 l 25
 80 332 l 25
EndSplineSet
Validated: 1
EndChar

StartChar: bar
Encoding: 124 124 19
Width: 250
VWidth: 1024
Flags: W
HStem: -216 21G<0 80> 788 20G<0 80>
VStem: 0 80<-216 808>
LayerCount: 2
Fore
SplineSet
0 -216 m 1
 0 808 l 1
 80 808 l 1
 80 -216 l 1
 0 -216 l 1
EndSplineSet
Validated: 1
EndChar

StartChar: Ugrave
Encoding: 217 217 20
Width: 700
VWidth: 1024
Flags: W
HStem: 0 84<80 450> 560 20G<0 80 450 530> 724 84<115 225>
VStem: 0 80<84 580> 225 80<628 724> 450 80<84 580>
CounterMasks: 1 1c
LayerCount: 2
Fore
SplineSet
115 724 m 1
 115 808 l 1
 225 808 l 1
 305 724 l 1
 305 628 l 1
 225 628 l 1
 225 724 l 1
 115 724 l 1
0 84 m 1
 0 580 l 25
 80 580 l 1
 80 84 l 25
 450 84 l 25
 450 580 l 1
 530 580 l 1
 530 84 l 25
 450 0 l 1
 80 0 l 25
 0 84 l 1
EndSplineSet
Validated: 1
EndChar

StartChar: Uacute
Encoding: 218 218 21
Width: 700
VWidth: 1024
Flags: W
HStem: 0 84<80 450> 560 20G<0 80 450 530> 724 84<305 415>
VStem: 0 80<84 580> 225 80<628 724> 450 80<84 580>
CounterMasks: 1 1c
LayerCount: 2
Fore
SplineSet
225 628 m 1
 225 724 l 1
 305 808 l 1
 415 808 l 1
 415 724 l 1
 305 724 l 1
 305 628 l 1
 225 628 l 1
0 84 m 1
 0 580 l 25
 80 580 l 1
 80 84 l 25
 450 84 l 25
 450 580 l 1
 530 580 l 1
 530 84 l 25
 450 0 l 1
 80 0 l 25
 0 84 l 1
EndSplineSet
Validated: 1
EndChar

StartChar: Ucircumflex
Encoding: 219 219 22
Width: 700
VWidth: 1024
Flags: W
HStem: 0 84<80 450> 560 20G<0 80 450 530> 732 76<191 339>
VStem: 0 80<84 580> 115 76<656 732> 339 76<656 732> 450 80<84 580>
LayerCount: 2
Fore
SplineSet
115 656 m 25
 115 732 l 1
 191 808 l 25
 339 808 l 25
 415 732 l 25
 415 656 l 25
 339 656 l 25
 339 732 l 25
 191 732 l 25
 191 656 l 1
 115 656 l 25
0 84 m 1
 0 580 l 25
 80 580 l 1
 80 84 l 25
 450 84 l 25
 450 580 l 1
 530 580 l 1
 530 84 l 25
 450 0 l 1
 80 0 l 25
 0 84 l 1
EndSplineSet
Validated: 1
EndChar

StartChar: Udieresis
Encoding: 220 220 23
Width: 700
VWidth: 1024
Flags: W
HStem: 0 84<80 450> 560 20G<0 80 450 530> 728 80<111 191 339 419>
VStem: 0 80<84 580> 111 80<728 808> 339 80<728 808> 450 80<84 580>
LayerCount: 2
Fore
SplineSet
339 728 m 1
 339 808 l 1
 419 808 l 1
 419 728 l 1
 339 728 l 1
111 728 m 1
 111 808 l 1
 191 808 l 1
 191 728 l 1
 111 728 l 1
0 84 m 1
 0 580 l 25
 80 580 l 1
 80 84 l 25
 450 84 l 25
 450 580 l 1
 530 580 l 1
 530 84 l 25
 450 0 l 1
 80 0 l 25
 0 84 l 1
EndSplineSet
Validated: 1
EndChar

StartChar: Ograve
Encoding: 210 210 24
Width: 700
VWidth: 1024
Flags: W
HStem: 0 84<80 450> 496 84<80 450> 724 84<115 225>
VStem: 0 80<84 496> 225 80<628 724> 450 80<84 496>
CounterMasks: 1 1c
LayerCount: 2
Fore
SplineSet
115 724 m 1
 115 808 l 1
 225 808 l 1
 305 724 l 1
 305 628 l 1
 225 628 l 1
 225 724 l 1
 115 724 l 1
0 84 m 1
 0 496 l 1
 80 580 l 25
 450 580 l 1
 530 496 l 1
 530 84 l 9
 450 0 l 1
 80 0 l 1
 0 84 l 1
80 84 m 1
 450 84 l 1
 450 496 l 1
 80 496 l 1
 80 84 l 1
EndSplineSet
Validated: 1
EndChar

StartChar: Oacute
Encoding: 211 211 25
Width: 700
VWidth: 1024
Flags: W
HStem: 0 84<80 450> 496 84<80 450> 724 84<305 415>
VStem: 0 80<84 496> 225 80<628 724> 450 80<84 496>
CounterMasks: 1 1c
LayerCount: 2
Fore
SplineSet
225 628 m 1
 225 724 l 1
 305 808 l 1
 415 808 l 1
 415 724 l 1
 305 724 l 1
 305 628 l 1
 225 628 l 1
0 84 m 1
 0 496 l 1
 80 580 l 25
 450 580 l 1
 530 496 l 1
 530 84 l 9
 450 0 l 1
 80 0 l 1
 0 84 l 1
80 84 m 1
 450 84 l 1
 450 496 l 1
 80 496 l 1
 80 84 l 1
EndSplineSet
Validated: 1
EndChar

StartChar: Ocircumflex
Encoding: 212 212 26
Width: 700
VWidth: 1024
Flags: W
HStem: 0 84<80 450> 496 84<80 450> 732 76<191 339>
VStem: 0 80<84 496> 115 76<656 732> 339 76<656 732> 450 80<84 496>
LayerCount: 2
Fore
SplineSet
115 656 m 25
 115 732 l 1
 191 808 l 25
 339 808 l 25
 415 732 l 25
 415 656 l 25
 339 656 l 25
 339 732 l 25
 191 732 l 25
 191 656 l 1
 115 656 l 25
0 84 m 1
 0 496 l 1
 80 580 l 25
 450 580 l 1
 530 496 l 1
 530 84 l 9
 450 0 l 1
 80 0 l 1
 0 84 l 1
80 84 m 1
 450 84 l 1
 450 496 l 1
 80 496 l 1
 80 84 l 1
EndSplineSet
Validated: 1
EndChar

StartChar: Otilde
Encoding: 213 213 27
Width: 700
VWidth: 1024
Flags: W
HStem: 0 84<80 450> 496 84<80 450> 648 80<325 375> 728 80<155 213>
VStem: 0 80<84 496> 75 80<648 728> 375 80<728 808> 450 80<84 496>
LayerCount: 2
Fore
SplineSet
75 648 m 25xe6
 75 728 l 1
 155 808 l 25
 239 808 l 1xd6
 325 728 l 1
 375 728 l 1xe6
 375 808 l 1
 455 808 l 1
 455 728 l 1xd6
 375 648 l 1
 299 648 l 25xe6
 213 728 l 25
 155 728 l 25xd6
 155 648 l 1
 75 648 l 25xe6
0 84 m 1xc9
 0 496 l 1
 80 580 l 25
 450 580 l 1
 530 496 l 1
 530 84 l 9
 450 0 l 1
 80 0 l 1
 0 84 l 1xc9
80 84 m 1
 450 84 l 1
 450 496 l 1
 80 496 l 1
 80 84 l 1
EndSplineSet
Validated: 1
EndChar

StartChar: Odieresis
Encoding: 214 214 28
Width: 700
VWidth: 1024
Flags: W
HStem: 0 84<80 450> 496 84<80 450> 728 80<111 191 339 419>
VStem: 0 80<84 496> 111 80<728 808> 339 80<728 808> 450 80<84 496>
LayerCount: 2
Fore
SplineSet
339 728 m 1
 339 808 l 1
 419 808 l 1
 419 728 l 1
 339 728 l 1
111 728 m 1
 111 808 l 1
 191 808 l 1
 191 728 l 1
 111 728 l 1
0 84 m 1
 0 496 l 1
 80 580 l 25
 450 580 l 1
 530 496 l 1
 530 84 l 9
 450 0 l 1
 80 0 l 1
 0 84 l 1
80 84 m 1
 450 84 l 1
 450 496 l 1
 80 496 l 1
 80 84 l 1
EndSplineSet
Validated: 1
EndChar

StartChar: Oslash
Encoding: 216 216 29
Width: 700
VWidth: 1024
Flags: W
HStem: 0 84<134 450> 496 84<80 396>
VStem: 0 80<154 496> 450 80<84 426>
DStem2: 80 154 134 84 0.678637 0.734474<0 450.873>
LayerCount: 2
Fore
SplineSet
0 84 m 1
 0 496 l 1
 80 580 l 25
 450 580 l 1
 530 496 l 1
 530 84 l 9
 450 0 l 1
 80 0 l 1
 0 84 l 1
134 84 m 17
 450 84 l 1
 450 426 l 9
 134 84 l 17
80 154 m 9
 396 496 l 17
 80 496 l 1
 80 154 l 9
EndSplineSet
Validated: 1
EndChar

StartChar: egrave
Encoding: 232 232 30
Width: 670
VWidth: 1024
Flags: W
HStem: 0 84<80 530> 248 84<80 450> 496 84<80 450> 724 84<115 225>
VStem: 0 80<84 248 332 496> 225 80<628 724> 450 80<332 496>
CounterMasks: 1 0e
LayerCount: 2
Fore
SplineSet
115 724 m 1
 115 808 l 1
 225 808 l 1
 305 724 l 1
 305 628 l 1
 225 628 l 1
 225 724 l 1
 115 724 l 1
0 84 m 1
 0 496 l 1
 80 580 l 25
 450 580 l 1
 530 496 l 1
 530 332 l 9
 450 248 l 1
 80 248 l 1
 80 84 l 1
 530 84 l 1
 530 0 l 1
 80 0 l 1
 0 84 l 1
80 332 m 25
 450 332 l 25
 450 496 l 25
 80 496 l 25
 80 332 l 25
EndSplineSet
Validated: 1
EndChar

StartChar: eacute
Encoding: 233 233 31
Width: 670
VWidth: 1024
Flags: W
HStem: 0 84<80 530> 248 84<80 450> 496 84<80 450> 724 84<305 415>
VStem: 0 80<84 248 332 496> 225 80<628 724> 450 80<332 496>
CounterMasks: 1 0e
LayerCount: 2
Fore
SplineSet
225 628 m 1
 225 724 l 1
 305 808 l 1
 415 808 l 1
 415 724 l 1
 305 724 l 1
 305 628 l 1
 225 628 l 1
0 84 m 1
 0 496 l 1
 80 580 l 25
 450 580 l 1
 530 496 l 1
 530 332 l 9
 450 248 l 1
 80 248 l 1
 80 84 l 1
 530 84 l 1
 530 0 l 1
 80 0 l 1
 0 84 l 1
80 332 m 25
 450 332 l 25
 450 496 l 25
 80 496 l 25
 80 332 l 25
EndSplineSet
Validated: 1
EndChar

StartChar: ecircumflex
Encoding: 234 234 32
Width: 670
VWidth: 1024
Flags: W
HStem: 0 84<80 530> 248 84<80 450> 496 84<80 450> 732 76<191 339>
VStem: 0 80<84 248 332 496> 115 76<656 732> 339 76<656 732> 450 80<332 496>
LayerCount: 2
Fore
SplineSet
115 656 m 25
 115 732 l 1
 191 808 l 25
 339 808 l 25
 415 732 l 25
 415 656 l 25
 339 656 l 25
 339 732 l 25
 191 732 l 25
 191 656 l 1
 115 656 l 25
0 84 m 1
 0 496 l 1
 80 580 l 25
 450 580 l 1
 530 496 l 1
 530 332 l 9
 450 248 l 1
 80 248 l 1
 80 84 l 1
 530 84 l 1
 530 0 l 1
 80 0 l 1
 0 84 l 1
80 332 m 25
 450 332 l 25
 450 496 l 25
 80 496 l 25
 80 332 l 25
EndSplineSet
Validated: 1
EndChar

StartChar: edieresis
Encoding: 235 235 33
Width: 670
VWidth: 1024
Flags: W
HStem: 0 84<80 530> 248 84<80 450> 496 84<80 450> 728 80<111 191 339 419>
VStem: 0 80<84 248 332 496> 111 80<728 808> 339 80<728 808> 450 80<332 496>
LayerCount: 2
Fore
SplineSet
339 728 m 1
 339 808 l 1
 419 808 l 1
 419 728 l 1
 339 728 l 1
111 728 m 1
 111 808 l 1
 191 808 l 1
 191 728 l 1
 111 728 l 1
0 84 m 1
 0 496 l 1
 80 580 l 25
 450 580 l 1
 530 496 l 1
 530 332 l 9
 450 248 l 1
 80 248 l 1
 80 84 l 1
 530 84 l 1
 530 0 l 1
 80 0 l 1
 0 84 l 1
80 332 m 25
 450 332 l 25
 450 496 l 25
 80 496 l 25
 80 332 l 25
EndSplineSet
Validated: 1
EndChar

StartChar: Agrave
Encoding: 192 192 34
Width: 700
VWidth: 1024
Flags: W
HStem: 0 21G<0 80 450 530> 248 84<80 450> 496 84<80 450> 724 84<115 225>
VStem: 0 80<0 248 332 496> 225 80<628 724> 450 80<0 248 332 496>
CounterMasks: 1 0e
LayerCount: 2
Fore
SplineSet
115 724 m 1
 115 808 l 1
 225 808 l 1
 305 724 l 1
 305 628 l 1
 225 628 l 1
 225 724 l 1
 115 724 l 1
80 332 m 25
 450 332 l 25
 450 496 l 25
 80 496 l 25
 80 332 l 25
  Spiro
    80 332 v
    450 332 v
    450 496 v
    80 496 v
    0 0 z
  EndSpiro
0 0 m 25
 0 496 l 1
 80 580 l 25
 450 580 l 1
 530 496 l 25
 530 0 l 1
 450 0 l 25
 450 248 l 25
 80 248 l 25
 80 0 l 25
 0 0 l 25
  Spiro
    0 0 v
    0 496 v
    80 580 v
    450 580 v
    530 496 v
    530 0 v
    450 0 v
    450 248 v
    80 248 v
    80 0 v
    0 0 z
  EndSpiro
EndSplineSet
Validated: 1
EndChar

StartChar: Aacute
Encoding: 193 193 35
Width: 700
VWidth: 1024
Flags: W
HStem: 0 21G<0 80 450 530> 248 84<80 450> 496 84<80 450> 724 84<305 415>
VStem: 0 80<0 248 332 496> 225 80<628 724> 450 80<0 248 332 496>
CounterMasks: 1 0e
LayerCount: 2
Fore
SplineSet
225 628 m 1
 225 724 l 1
 305 808 l 1
 415 808 l 1
 415 724 l 1
 305 724 l 1
 305 628 l 1
 225 628 l 1
80 332 m 25
 450 332 l 25
 450 496 l 25
 80 496 l 25
 80 332 l 25
0 0 m 25
 0 496 l 1
 80 580 l 25
 450 580 l 1
 530 496 l 25
 530 0 l 1
 450 0 l 25
 450 248 l 25
 80 248 l 25
 80 0 l 25
 0 0 l 25
EndSplineSet
Validated: 1
EndChar

StartChar: Acircumflex
Encoding: 194 194 36
Width: 700
VWidth: 1024
Flags: W
HStem: 0 21G<0 80 450 530> 248 84<80 450> 496 84<80 450> 732 76<191 339>
VStem: 0 80<0 248 332 496> 115 76<656 732> 339 76<656 732> 450 80<0 248 332 496>
LayerCount: 2
Fore
SplineSet
115 656 m 25
 115 732 l 1
 191 808 l 25
 339 808 l 25
 415 732 l 25
 415 656 l 25
 339 656 l 25
 339 732 l 25
 191 732 l 25
 191 656 l 1
 115 656 l 25
80 332 m 25
 450 332 l 25
 450 496 l 25
 80 496 l 25
 80 332 l 25
0 0 m 25
 0 496 l 1
 80 580 l 25
 450 580 l 1
 530 496 l 25
 530 0 l 1
 450 0 l 25
 450 248 l 25
 80 248 l 25
 80 0 l 25
 0 0 l 25
EndSplineSet
Validated: 1
EndChar

StartChar: Atilde
Encoding: 195 195 37
Width: 700
VWidth: 1024
Flags: W
HStem: 0 21G<0 80 450 530> 248 84<80 450> 496 84<80 450> 648 80<325 375> 728 80<155 213>
VStem: 0 80<0 248 332 496> 75 80<648 728> 375 80<728 808> 450 80<0 248 332 496>
LayerCount: 2
Fore
SplineSet
75 648 m 25xf3
 75 728 l 1
 155 808 l 25
 239 808 l 1xeb
 325 728 l 1
 375 728 l 1xf3
 375 808 l 1
 455 808 l 1
 455 728 l 1xeb
 375 648 l 1
 299 648 l 25xf3
 213 728 l 25
 155 728 l 25xeb
 155 648 l 1
 75 648 l 25xf3
80 332 m 25xe480
 450 332 l 25
 450 496 l 25
 80 496 l 25
 80 332 l 25xe480
0 0 m 25
 0 496 l 1
 80 580 l 25
 450 580 l 1
 530 496 l 25
 530 0 l 1
 450 0 l 25
 450 248 l 25
 80 248 l 25
 80 0 l 25
 0 0 l 25
EndSplineSet
Validated: 1
EndChar

StartChar: Adieresis
Encoding: 196 196 38
Width: 700
VWidth: 1024
Flags: W
HStem: 0 21G<0 80 450 530> 248 84<80 450> 496 84<80 450> 728 80<111 191 339 419>
VStem: 0 80<0 248 332 496> 111 80<728 808> 339 80<728 808> 450 80<0 248 332 496>
LayerCount: 2
Fore
SplineSet
339 728 m 1
 339 808 l 1
 419 808 l 1
 419 728 l 1
 339 728 l 1
111 728 m 1
 111 808 l 1
 191 808 l 1
 191 728 l 1
 111 728 l 1
80 332 m 25
 450 332 l 25
 450 496 l 25
 80 496 l 25
 80 332 l 25
0 0 m 25
 0 496 l 1
 80 580 l 25
 450 580 l 1
 530 496 l 25
 530 0 l 1
 450 0 l 25
 450 248 l 25
 80 248 l 25
 80 0 l 25
 0 0 l 25
EndSplineSet
Validated: 1
EndChar

StartChar: Aring
Encoding: 197 197 39
Width: 700
VWidth: 1024
Flags: W
HStem: 0 21G<0 80 450 530> 248 84<80 450> 496 84<80 450> 728 80<225 305>
VStem: 0 80<0 248 332 496> 225 80<728 808> 450 80<0 248 332 496>
CounterMasks: 1 0e
LayerCount: 2
Fore
SplineSet
225 728 m 1
 225 808 l 1
 305 808 l 1
 305 728 l 1
 225 728 l 1
80 332 m 25
 450 332 l 25
 450 496 l 25
 80 496 l 25
 80 332 l 25
0 0 m 25
 0 496 l 1
 80 580 l 25
 450 580 l 1
 530 496 l 25
 530 0 l 1
 450 0 l 25
 450 248 l 25
 80 248 l 25
 80 0 l 25
 0 0 l 25
EndSplineSet
Validated: 1
EndChar

StartChar: zero
Encoding: 48 48 40
Width: 680
VWidth: 1024
Flags: W
HStem: 0 84<80 450> 496 84<80 450>
VStem: 0 80<84 496> 450 80<84 496>
LayerCount: 2
Fore
SplineSet
0 84 m 1
 0 496 l 1
 80 580 l 25
 450 580 l 1
 530 496 l 1
 530 84 l 9
 450 0 l 1
 80 0 l 1
 0 84 l 1
80 84 m 1
 450 84 l 1
 450 496 l 1
 80 496 l 1
 80 84 l 1
EndSplineSet
Validated: 1
EndChar

StartChar: b
Encoding: 98 98 41
Width: 700
VWidth: 1024
Flags: W
HStem: 0 84<0 450> 496 84<80 450> 788 20G<0 80>
VStem: 0 80<580 808> 450 80<84 496>
LayerCount: 2
Fore
SplineSet
0 0 m 1
 0 84 l 17
 450 84 l 1
 450 496 l 1
 0 496 l 1
 0 808 l 1
 80 808 l 25
 80 580 l 1
 450 580 l 1
 530 496 l 1
 530 84 l 1
 450 0 l 1
 0 0 l 1
EndSplineSet
Validated: 1
EndChar

StartChar: slash
Encoding: 47 47 42
Width: 680
VWidth: 1024
Flags: W
HStem: 0 84<0 225> 496 84<305 530>
VStem: 225 80<84 496>
LayerCount: 2
Fore
SplineSet
0 0 m 1
 0 84 l 25
 225 84 l 1
 225 496 l 17
 305 580 l 1
 530 580 l 1
 530 496 l 1
 305 496 l 9
 305 84 l 1
 225 0 l 9
 0 0 l 1
EndSplineSet
Validated: 1
EndChar

StartChar: percent
Encoding: 37 37 43
Width: 680
VWidth: 1024
Flags: W
HStem: 0 84<0 225 450 530> 496 84<0 80 305 530>
VStem: 0 80<496 580> 225 80<84 496> 450 80<0 84>
CounterMasks: 1 38
LayerCount: 2
Fore
SplineSet
450 -0 m 1
 450 84 l 1
 530 84 l 1
 530 -0 l 1
 450 -0 l 1
0 496 m 1
 0 580 l 1
 80 580 l 1
 80 496 l 1
 0 496 l 1
0 0 m 1
 0 84 l 25
 225 84 l 1
 225 496 l 17
 305 580 l 1
 530 580 l 1
 530 496 l 1
 305 496 l 9
 305 84 l 1
 225 0 l 9
 0 0 l 1
EndSplineSet
Validated: 1
EndChar

StartChar: W
Encoding: 87 87 44
Width: 750
VWidth: 1024
Flags: W
HStem: 0 84<80 250 330 500> 560 20G<0 80 250 330 500 580>
VStem: 0 80<84 580> 250 80<84 580> 500 80<84 580>
CounterMasks: 1 38
LayerCount: 2
Fore
SplineSet
0 84 m 1
 0 580 l 25
 80 580 l 1
 80 84 l 1
 250 84 l 1
 250 580 l 1
 330 580 l 1
 330 84 l 17
 500 84 l 1
 500 580 l 1
 580 580 l 1
 580 84 l 25
 500 0 l 1
 80 0 l 25
 0 84 l 1
EndSplineSet
Validated: 1
EndChar

StartChar: w
Encoding: 119 119 45
Width: 750
VWidth: 1024
Flags: W
HStem: 0 84<80 250 330 500> 560 20G<0 80 250 330 500 580>
VStem: 0 80<84 580> 250 80<84 580> 500 80<84 580>
CounterMasks: 1 38
LayerCount: 2
Fore
SplineSet
0 84 m 1
 0 580 l 25
 80 580 l 1
 80 84 l 1
 250 84 l 1
 250 580 l 1
 330 580 l 1
 330 84 l 17
 500 84 l 1
 500 580 l 1
 580 580 l 1
 580 84 l 25
 500 0 l 1
 80 0 l 25
 0 84 l 1
EndSplineSet
Validated: 1
EndChar

StartChar: Z
Encoding: 90 90 46
Width: 680
VWidth: 1024
Flags: W
HStem: 0 84<80 530> 248 84<80 450> 496 84<0 450>
VStem: 0 80<84 248> 450 80<332 496>
CounterMasks: 1 e0
LayerCount: 2
Fore
SplineSet
0 0 m 1
 0 248 l 1
 80 332 l 9
 450 332 l 1
 450 496 l 1
 0 496 l 1
 0 580 l 17
 530 580 l 1
 530 332 l 9
 450 248 l 1
 80 248 l 17
 80 84 l 1
 530 84 l 9
 530 0 l 17
 0 0 l 1
EndSplineSet
Validated: 1
EndChar

StartChar: z
Encoding: 122 122 47
Width: 680
VWidth: 1024
Flags: W
HStem: 0 84<80 530> 248 84<80 450> 496 84<0 450>
VStem: 0 80<84 248> 450 80<332 496>
CounterMasks: 1 e0
LayerCount: 2
Fore
SplineSet
0 0 m 1
 0 248 l 1
 80 332 l 9
 450 332 l 1
 450 496 l 1
 0 496 l 1
 0 580 l 17
 530 580 l 1
 530 332 l 9
 450 248 l 1
 80 248 l 17
 80 84 l 1
 530 84 l 9
 530 0 l 17
 0 0 l 1
EndSplineSet
Validated: 1
EndChar

StartChar: C
Encoding: 67 67 48
Width: 660
VWidth: 1024
Flags: W
HStem: 0 84<80 530> 496 84<80 530>
VStem: 0 80<84 496>
LayerCount: 2
Fore
SplineSet
0 84 m 5
 0 496 l 5
 80 580 l 5
 530 580 l 13
 530 496 l 5
 80 496 l 5
 80 84 l 5
 530 84 l 13
 530 0 l 21
 80 0 l 5
 0 84 l 5
EndSplineSet
Validated: 1
EndChar

StartChar: c
Encoding: 99 99 49
Width: 660
VWidth: 1024
Flags: W
HStem: 0 84<80 530> 496 84<80 530>
VStem: 0 80<84 496>
LayerCount: 2
Fore
SplineSet
0 84 m 1
 0 496 l 1
 80 580 l 1
 530 580 l 9
 530 496 l 1
 80 496 l 1
 80 84 l 1
 530 84 l 9
 530 0 l 17
 80 0 l 1
 0 84 l 1
EndSplineSet
Validated: 1
EndChar

StartChar: backslash
Encoding: 92 92 50
Width: 660
VWidth: 1024
Flags: W
HStem: 0 84<305 530> 496 84<0 225>
VStem: 225 80<84 496>
LayerCount: 2
Fore
SplineSet
0 496 m 1
 0 580 l 1
 225 580 l 1
 305 496 l 9
 305 84 l 1
 530 84 l 25
 530 0 l 1
 305 0 l 17
 225 84 l 1
 225 496 l 17
 0 496 l 1
EndSplineSet
Validated: 1
EndChar

StartChar: d
Encoding: 100 100 51
Width: 660
VWidth: 1024
Flags: W
HStem: 0 84<80 530> 496 84<80 450> 788 20G<450 530>
VStem: 0 80<84 496> 450 80<580 808>
LayerCount: 2
Fore
SplineSet
0 84 m 1
 0 496 l 1
 80 580 l 1
 450 580 l 1
 450 808 l 25
 530 808 l 1
 530 496 l 1
 80 496 l 1
 80 84 l 1
 530 84 l 9
 530 0 l 1
 80 0 l 1
 0 84 l 1
EndSplineSet
Validated: 1
EndChar

StartChar: one
Encoding: 49 49 52
Width: 390
VWidth: 1024
Flags: W
HStem: 0 21G<110 190> 496 84<0 110>
VStem: 110 80<0 496>
LayerCount: 2
Fore
SplineSet
0 496 m 9
 0 580 l 1
 110 580 l 1
 190 496 l 25
 190 0 l 1
 110 0 l 1
 110 496 l 1
 0 496 l 9
EndSplineSet
Validated: 1
EndChar

StartChar: R
Encoding: 82 82 53
Width: 630
VWidth: 1024
Flags: W
HStem: 0 21G<0 80 450 530> 216 84<80 450> 496 84<0 450>
VStem: 0 80<0 216> 450 80<0 132 300 496>
LayerCount: 2
Fore
SplineSet
450 -0 m 1
 450 216 l 1
 530 132 l 1
 530 -0 l 9
 450 -0 l 1
0 0 m 1
 0 300 l 1
 450 300 l 1
 450 496 l 1
 0 496 l 9
 0 580 l 1
 450 580 l 1
 530 496 l 1
 530 300 l 1
 450 216 l 1
 80 216 l 1
 80 0 l 25
 0 0 l 1
EndSplineSet
Validated: 5
EndChar

StartChar: r
Encoding: 114 114 54
Width: 630
VWidth: 1024
Flags: W
HStem: 0 21G<0 80> 496 84<80 530>
VStem: 0 80<0 496>
LayerCount: 2
Fore
SplineSet
0 0 m 25
 0 496 l 1
 80 580 l 1
 530 580 l 1
 530 496 l 1
 80 496 l 1
 80 0 l 1
 0 0 l 25
EndSplineSet
Validated: 1
EndChar

StartChar: q
Encoding: 113 113 55
Width: 660
VWidth: 1024
Flags: W
HStem: -216 21G<450 530> 0 84<80 450> 496 84<80 530>
VStem: 0 80<84 496> 450 80<-216 0>
LayerCount: 2
Fore
SplineSet
0 84 m 1
 0 496 l 1
 80 580 l 1
 530 580 l 1
 530 496 l 17
 80 496 l 1
 80 84 l 1
 530 84 l 1
 530 -216 l 1
 450 -216 l 25
 450 0 l 1
 80 0 l 1
 0 84 l 1
EndSplineSet
Validated: 1
EndChar

StartChar: E
Encoding: 69 69 56
Width: 670
VWidth: 1024
Flags: W
HStem: 0 84<80 530> 248 84<80 530> 496 84<80 530>
VStem: 0 80<84 248 332 496>
CounterMasks: 1 e0
LayerCount: 2
Fore
SplineSet
0 84 m 1
 0 496 l 1
 80 580 l 1
 530 580 l 1
 530 496 l 1
 80 496 l 1
 80 332 l 1
 530 332 l 17
 530 248 l 1
 80 248 l 1
 80 84 l 1
 530 84 l 1
 530 0 l 1
 80 0 l 1
 0 84 l 1
EndSplineSet
Validated: 1
EndChar

StartChar: Egrave
Encoding: 200 200 57
Width: 670
VWidth: 1024
Flags: W
HStem: 0 84<80 530> 248 84<80 530> 496 84<80 530> 724 84<115 225>
VStem: 0 80<84 248 332 496> 225 80<628 724>
LayerCount: 2
Fore
SplineSet
115 724 m 1
 115 808 l 1
 225 808 l 1
 305 724 l 1
 305 628 l 1
 225 628 l 1
 225 724 l 1
 115 724 l 1
0 84 m 1
 0 496 l 1
 80 580 l 1
 530 580 l 1
 530 496 l 1
 80 496 l 1
 80 332 l 1
 530 332 l 17
 530 248 l 1
 80 248 l 1
 80 84 l 1
 530 84 l 1
 530 0 l 1
 80 0 l 1
 0 84 l 1
EndSplineSet
Validated: 1
EndChar

StartChar: Eacute
Encoding: 201 201 58
Width: 670
VWidth: 1024
Flags: W
HStem: 0 84<80 530> 248 84<80 530> 496 84<80 530> 724 84<305 415>
VStem: 0 80<84 248 332 496> 225 80<628 724>
LayerCount: 2
Fore
SplineSet
225 628 m 1
 225 724 l 1
 305 808 l 1
 415 808 l 1
 415 724 l 1
 305 724 l 1
 305 628 l 1
 225 628 l 1
0 84 m 1
 0 496 l 1
 80 580 l 1
 530 580 l 1
 530 496 l 1
 80 496 l 1
 80 332 l 1
 530 332 l 17
 530 248 l 1
 80 248 l 1
 80 84 l 1
 530 84 l 1
 530 0 l 1
 80 0 l 1
 0 84 l 1
EndSplineSet
Validated: 1
EndChar

StartChar: Ecircumflex
Encoding: 202 202 59
Width: 670
VWidth: 1024
Flags: W
HStem: 0 84<80 530> 248 84<80 530> 496 84<80 530> 732 76<191 339>
VStem: 0 80<84 248 332 496> 115 76<656 732> 339 76<656 732>
LayerCount: 2
Fore
SplineSet
115 656 m 25
 115 732 l 1
 191 808 l 25
 339 808 l 25
 415 732 l 25
 415 656 l 25
 339 656 l 25
 339 732 l 25
 191 732 l 25
 191 656 l 1
 115 656 l 25
0 84 m 1
 0 496 l 1
 80 580 l 1
 530 580 l 1
 530 496 l 1
 80 496 l 1
 80 332 l 1
 530 332 l 17
 530 248 l 1
 80 248 l 1
 80 84 l 1
 530 84 l 1
 530 0 l 1
 80 0 l 1
 0 84 l 1
EndSplineSet
Validated: 1
EndChar

StartChar: Edieresis
Encoding: 203 203 60
Width: 670
VWidth: 1024
Flags: W
HStem: 0 84<80 530> 248 84<80 530> 496 84<80 530> 728 80<111 191 339 419>
VStem: 0 80<84 248 332 496> 111 80<728 808> 339 80<728 808>
LayerCount: 2
Fore
SplineSet
339 728 m 1
 339 808 l 1
 419 808 l 1
 419 728 l 1
 339 728 l 1
111 728 m 1
 111 808 l 1
 191 808 l 1
 191 728 l 1
 111 728 l 1
0 84 m 1
 0 496 l 1
 80 580 l 1
 530 580 l 1
 530 496 l 1
 80 496 l 1
 80 332 l 1
 530 332 l 17
 530 248 l 1
 80 248 l 1
 80 84 l 1
 530 84 l 1
 530 0 l 1
 80 0 l 1
 0 84 l 1
EndSplineSet
Validated: 1
EndChar

StartChar: three
Encoding: 51 51 61
Width: 680
VWidth: 1024
Flags: W
HStem: 0 84<0 450> 248 84<0 450> 496 84<0 450>
VStem: 450 80<84 248 332 496>
CounterMasks: 1 e0
LayerCount: 2
Fore
SplineSet
0 0 m 1
 0 84 l 1
 450 84 l 1
 450 248 l 1
 0 248 l 1
 0 332 l 9
 450 332 l 1
 450 496 l 1
 0 496 l 1
 0 580 l 1
 450 580 l 1
 530 496 l 1
 530 84 l 1
 450 0 l 1
 0 0 l 1
EndSplineSet
Validated: 1
EndChar

StartChar: D
Encoding: 68 68 62
Width: 660
VWidth: 1024
Flags: W
HStem: 0 84<0 450> 496 84<0 450>
VStem: 450 80<84 496>
LayerCount: 2
Fore
SplineSet
0 0 m 9
 0 84 l 17
 450 84 l 1
 450 496 l 1
 0 496 l 1
 0 580 l 17
 450 580 l 1
 530 496 l 1
 530 84 l 1
 450 0 l 1
 0 0 l 9
EndSplineSet
Validated: 1
EndChar

StartChar: a
Encoding: 97 97 63
Width: 680
VWidth: 1024
Flags: W
HStem: 0 84<80 450> 248 84<80 450> 496 84<80 450>
VStem: 0 80<84 248> 450 80<84 248 332 496>
CounterMasks: 1 e0
LayerCount: 2
Fore
SplineSet
0 84 m 1
 0 248 l 1
 80 332 l 1
 450 332 l 1
 450 496 l 1
 80 496 l 1
 80 580 l 1
 450 580 l 1
 530 496 l 1
 530 0 l 1
 80 0 l 1
 0 84 l 1
80 84 m 1
 450 84 l 1
 450 248 l 1
 80 248 l 1
 80 84 l 1
EndSplineSet
Validated: 1
EndChar

StartChar: underscore
Encoding: 95 95 64
Width: 640
VWidth: 1024
Flags: W
HStem: -116 112<0 530>
LayerCount: 2
Fore
SplineSet
0 -116 m 1
 0 -4 l 1
 530 -4 l 1
 530 -116 l 1
 0 -116 l 1
EndSplineSet
Validated: 1
EndChar

StartChar: uniE001
Encoding: 57345 57345 65
Width: 630
VWidth: 1024
Flags: W
HStem: 0 84<80 530> 560 20G<0 80> 724 84<-110 0>
VStem: 0 80<84 580 628 724>
LayerCount: 2
Fore
SplineSet
-110 724 m 1
 -110 808 l 1
 0 808 l 1
 80 724 l 1
 80 628 l 1
 0 628 l 1
 0 724 l 1
 -110 724 l 1
0 84 m 1
 0 580 l 25
 80 580 l 1
 80 84 l 1
 530 84 l 1
 530 0 l 1
 80 0 l 1
 0 84 l 1
EndSplineSet
Validated: 1
EndChar

StartChar: uniE002
Encoding: 57346 57346 66
Width: 630
VWidth: 1024
Flags: W
HStem: 0 84<80 530> 560 20G<0 80> 724 84<80 190>
VStem: 0 80<84 580 628 724>
LayerCount: 2
Fore
SplineSet
0 628 m 1
 0 724 l 1
 80 808 l 1
 190 808 l 1
 190 724 l 1
 80 724 l 1
 80 628 l 1
 0 628 l 1
0 84 m 1
 0 580 l 25
 80 580 l 1
 80 84 l 1
 530 84 l 1
 530 0 l 1
 80 0 l 1
 0 84 l 1
EndSplineSet
Validated: 1
EndChar

StartChar: uniE003
Encoding: 57347 57347 67
Width: 630
VWidth: 1024
Flags: W
HStem: 0 84<80 530> 560 20G<0 80> 732 76<-34 114>
VStem: -110 76<656 732> 0 80<84 580> 114 76<656 732>
CounterMasks: 1 1c
LayerCount: 2
Fore
SplineSet
-110 656 m 25
 -110 732 l 1
 -34 808 l 25
 114 808 l 25
 190 732 l 25
 190 656 l 25
 114 656 l 25
 114 732 l 25
 -34 732 l 25
 -34 656 l 1
 -110 656 l 25
0 84 m 1
 0 580 l 25
 80 580 l 1
 80 84 l 1
 530 84 l 1
 530 0 l 1
 80 0 l 1
 0 84 l 1
EndSplineSet
Validated: 1
EndChar

StartChar: uniE004
Encoding: 57348 57348 68
Width: 630
VWidth: 1024
Flags: W
HStem: 0 84<80 530> 560 20G<0 80> 728 80<0 80 110 190>
VStem: 0 80<84 580 728 808> 110 80<728 808>
LayerCount: 2
Fore
SplineSet
110 728 m 1
 110 808 l 1
 190 808 l 1
 190 728 l 1
 110 728 l 1
0 728 m 1
 0 808 l 1
 80 808 l 1
 80 728 l 1
 0 728 l 1
0 84 m 1
 0 580 l 25
 80 580 l 1
 80 84 l 1
 530 84 l 1
 530 0 l 1
 80 0 l 1
 0 84 l 1
EndSplineSet
Validated: 1
EndChar

StartChar: agrave
Encoding: 224 224 69
Width: 680
VWidth: 1024
Flags: W
HStem: 0 84<80 450> 248 84<80 450> 496 84<80 450> 724 84<115 225>
VStem: 0 80<84 248> 225 80<628 724> 450 80<84 248 332 496>
CounterMasks: 1 0e
LayerCount: 2
Fore
SplineSet
115 724 m 1
 115 808 l 1
 225 808 l 1
 305 724 l 1
 305 628 l 1
 225 628 l 1
 225 724 l 1
 115 724 l 1
0 84 m 1
 0 248 l 1
 80 332 l 1
 450 332 l 1
 450 496 l 1
 80 496 l 1
 80 580 l 1
 450 580 l 1
 530 496 l 1
 530 0 l 1
 80 0 l 1
 0 84 l 1
80 84 m 1
 450 84 l 1
 450 248 l 1
 80 248 l 1
 80 84 l 1
EndSplineSet
Validated: 1
EndChar

StartChar: aacute
Encoding: 225 225 70
Width: 680
VWidth: 1024
Flags: W
HStem: 0 84<80 450> 248 84<80 450> 496 84<80 450> 724 84<305 415>
VStem: 0 80<84 248> 225 80<628 724> 450 80<84 248 332 496>
CounterMasks: 1 0e
LayerCount: 2
Fore
SplineSet
225 628 m 1
 225 724 l 1
 305 808 l 1
 415 808 l 1
 415 724 l 1
 305 724 l 1
 305 628 l 1
 225 628 l 1
0 84 m 1
 0 248 l 1
 80 332 l 1
 450 332 l 1
 450 496 l 1
 80 496 l 1
 80 580 l 1
 450 580 l 1
 530 496 l 1
 530 0 l 1
 80 0 l 1
 0 84 l 1
80 84 m 1
 450 84 l 1
 450 248 l 1
 80 248 l 1
 80 84 l 1
EndSplineSet
Validated: 1
EndChar

StartChar: acircumflex
Encoding: 226 226 71
Width: 680
VWidth: 1024
Flags: W
HStem: 0 84<80 450> 248 84<80 450> 496 84<80 450> 732 76<191 339>
VStem: 0 80<84 248> 115 76<656 732> 339 76<656 732> 450 80<84 248 332 496>
LayerCount: 2
Fore
SplineSet
115 656 m 25
 115 732 l 1
 191 808 l 25
 339 808 l 25
 415 732 l 25
 415 656 l 25
 339 656 l 25
 339 732 l 25
 191 732 l 25
 191 656 l 1
 115 656 l 25
0 84 m 1
 0 248 l 1
 80 332 l 1
 450 332 l 1
 450 496 l 1
 80 496 l 1
 80 580 l 1
 450 580 l 1
 530 496 l 1
 530 0 l 1
 80 0 l 1
 0 84 l 1
80 84 m 1
 450 84 l 1
 450 248 l 1
 80 248 l 1
 80 84 l 1
EndSplineSet
Validated: 1
EndChar

StartChar: atilde
Encoding: 227 227 72
Width: 680
VWidth: 1024
Flags: W
HStem: 0 84<80 450> 248 84<80 450> 496 84<80 450> 648 80<325 375> 728 80<155 213>
VStem: 0 80<84 248> 75 80<648 728> 375 80<728 808> 450 80<84 248 332 496>
LayerCount: 2
Fore
SplineSet
75 648 m 25xf3
 75 728 l 1
 155 808 l 25
 239 808 l 1xeb
 325 728 l 1
 375 728 l 1xf3
 375 808 l 1
 455 808 l 1
 455 728 l 1xeb
 375 648 l 1
 299 648 l 25xf3
 213 728 l 25
 155 728 l 25xeb
 155 648 l 1
 75 648 l 25xf3
0 84 m 1xe480
 0 248 l 1
 80 332 l 1
 450 332 l 1
 450 496 l 1
 80 496 l 1
 80 580 l 1
 450 580 l 1
 530 496 l 1
 530 0 l 1
 80 0 l 1
 0 84 l 1xe480
80 84 m 1
 450 84 l 1
 450 248 l 1
 80 248 l 1
 80 84 l 1
EndSplineSet
Validated: 1
EndChar

StartChar: adieresis
Encoding: 228 228 73
Width: 680
VWidth: 1024
Flags: W
HStem: 0 84<80 450> 248 84<80 450> 496 84<80 450> 728 80<111 191 339 419>
VStem: 0 80<84 248> 111 80<728 808> 339 80<728 808> 450 80<84 248 332 496>
LayerCount: 2
Fore
SplineSet
339 728 m 1
 339 808 l 1
 419 808 l 1
 419 728 l 1
 339 728 l 1
111 728 m 1
 111 808 l 1
 191 808 l 1
 191 728 l 1
 111 728 l 1
0 84 m 1
 0 248 l 1
 80 332 l 1
 450 332 l 1
 450 496 l 1
 80 496 l 1
 80 580 l 1
 450 580 l 1
 530 496 l 1
 530 0 l 1
 80 0 l 1
 0 84 l 1
80 84 m 1
 450 84 l 1
 450 248 l 1
 80 248 l 1
 80 84 l 1
EndSplineSet
Validated: 1
EndChar

StartChar: aring
Encoding: 229 229 74
Width: 680
VWidth: 1024
Flags: W
HStem: 0 84<80 450> 248 84<80 450> 496 84<80 450> 728 80<225 305>
VStem: 0 80<84 248> 225 80<728 808> 450 80<84 248 332 496>
CounterMasks: 1 0e
LayerCount: 2
Fore
SplineSet
225 728 m 1
 225 808 l 1
 305 808 l 1
 305 728 l 1
 225 728 l 1
0 84 m 1
 0 248 l 1
 80 332 l 1
 450 332 l 1
 450 496 l 1
 80 496 l 1
 80 580 l 1
 450 580 l 1
 530 496 l 1
 530 0 l 1
 80 0 l 1
 0 84 l 1
80 84 m 1
 450 84 l 1
 450 248 l 1
 80 248 l 1
 80 84 l 1
EndSplineSet
Validated: 1
EndChar

StartChar: two
Encoding: 50 50 75
Width: 700
VWidth: 1024
Flags: W
HStem: 0 84<80 530> 248 84<80 450> 496 84<112 450>
VStem: 0 80<84 248> 450 80<332 496>
CounterMasks: 1 e0
LayerCount: 2
Fore
SplineSet
0 0 m 1
 0 248 l 1
 80 332 l 9
 450 332 l 1
 450 496 l 1
 112 496 l 1
 112 580 l 1
 450 580 l 1
 530 496 l 1
 530 248 l 1
 80 248 l 1
 80 84 l 1
 530 84 l 9
 530 0 l 17
 0 0 l 1
EndSplineSet
Validated: 1
EndChar

StartChar: question
Encoding: 63 63 76
Width: 700
VWidth: 1024
Flags: W
HStem: -216 84<0 80> 0 84<0 450> 496 84<0 450>
VStem: 0 80<-216 -132> 450 80<84 496>
LayerCount: 2
Fore
SplineSet
0 -216 m 1
 0 -132 l 1
 80 -132 l 1
 80 -216 l 1
 0 -216 l 1
0 0 m 9
 0 84 l 17
 450 84 l 1
 450 496 l 1
 0 496 l 1
 0 580 l 17
 450 580 l 1
 530 496 l 1
 530 84 l 1
 450 0 l 1
 0 0 l 9
EndSplineSet
Validated: 1
EndChar

StartChar: I
Encoding: 73 73 77
Width: 680
VWidth: 1024
Flags: W
HStem: 0 84<0 225 305 530> 496 84<0 225 305 530>
VStem: 225 80<84 496>
LayerCount: 2
Fore
SplineSet
0 0 m 1
 0 84 l 17
 225 84 l 1
 225 496 l 1
 0 496 l 9
 0 580 l 1
 530 580 l 1
 530 496 l 17
 305 496 l 1
 305 84 l 1
 530 84 l 1
 530 0 l 17
 0 0 l 1
EndSplineSet
Validated: 1
EndChar

StartChar: Igrave
Encoding: 204 204 78
Width: 680
VWidth: 1024
Flags: W
HStem: 0 84<0 225 305 530> 496 84<0 225 305 530> 724 84<115 225>
VStem: 225 80<84 496 628 724>
LayerCount: 2
Fore
SplineSet
115 724 m 1
 115 808 l 1
 225 808 l 1
 305 724 l 1
 305 628 l 1
 225 628 l 1
 225 724 l 1
 115 724 l 1
0 0 m 1
 0 84 l 17
 225 84 l 1
 225 496 l 1
 0 496 l 9
 0 580 l 1
 530 580 l 1
 530 496 l 17
 305 496 l 1
 305 84 l 1
 530 84 l 1
 530 0 l 17
 0 0 l 1
EndSplineSet
Validated: 1
AlternateSubs2: "Subtable 'salt'" uniE001
EndChar

StartChar: Iacute
Encoding: 205 205 79
Width: 680
VWidth: 1024
Flags: W
HStem: 0 84<0 225 305 530> 496 84<0 225 305 530> 724 84<305 415>
VStem: 225 80<84 496 628 724>
LayerCount: 2
Fore
SplineSet
225 628 m 1
 225 724 l 1
 305 808 l 1
 415 808 l 1
 415 724 l 1
 305 724 l 1
 305 628 l 1
 225 628 l 1
0 0 m 1
 0 84 l 17
 225 84 l 1
 225 496 l 1
 0 496 l 9
 0 580 l 1
 530 580 l 1
 530 496 l 17
 305 496 l 1
 305 84 l 1
 530 84 l 1
 530 0 l 17
 0 0 l 1
EndSplineSet
Validated: 1
AlternateSubs2: "Subtable 'salt'" uniE002
EndChar

StartChar: Icircumflex
Encoding: 206 206 80
Width: 680
VWidth: 1024
Flags: W
HStem: 0 84<0 225 305 530> 496 84<0 225 305 530> 732 76<191 339>
VStem: 115 76<656 732> 225 80<84 496> 339 76<656 732>
CounterMasks: 1 1c
LayerCount: 2
Fore
SplineSet
115 656 m 25
 115 732 l 1
 191 808 l 25
 339 808 l 25
 415 732 l 25
 415 656 l 25
 339 656 l 25
 339 732 l 25
 191 732 l 25
 191 656 l 1
 115 656 l 25
0 0 m 1
 0 84 l 17
 225 84 l 1
 225 496 l 1
 0 496 l 9
 0 580 l 1
 530 580 l 1
 530 496 l 17
 305 496 l 1
 305 84 l 1
 530 84 l 1
 530 0 l 17
 0 0 l 1
EndSplineSet
Validated: 1
AlternateSubs2: "Subtable 'salt'" uniE003
EndChar

StartChar: Idieresis
Encoding: 207 207 81
Width: 680
VWidth: 1024
Flags: W
HStem: 0 84<0 225 305 530> 496 84<0 225 305 530> 728 80<170 250 280 360>
VStem: 170 80<728 808> 225 80<84 496> 280 80<728 808>
LayerCount: 2
Fore
SplineSet
280 728 m 1xe4
 280 808 l 1
 360 808 l 1
 360 728 l 1
 280 728 l 1xe4
170 728 m 1xf0
 170 808 l 1
 250 808 l 1
 250 728 l 1
 170 728 l 1xf0
0 0 m 1
 0 84 l 17
 225 84 l 1
 225 496 l 1
 0 496 l 9
 0 580 l 1
 530 580 l 1
 530 496 l 17
 305 496 l 1
 305 84 l 1xe8
 530 84 l 1
 530 0 l 17
 0 0 l 1
EndSplineSet
Validated: 1
AlternateSubs2: "Subtable 'salt'" uniE004
EndChar

StartChar: igrave
Encoding: 236 236 82
Width: 390
VWidth: 1024
Flags: W
HStem: 0 21G<110 190> 496 84<0 110> 724 84<0 110>
VStem: 110 80<0 496 628 724>
LayerCount: 2
Fore
SplineSet
0 724 m 1
 0 808 l 1
 110 808 l 1
 190 724 l 1
 190 628 l 1
 110 628 l 1
 110 724 l 1
 0 724 l 1
0 496 m 9
 0 580 l 1
 110 580 l 1
 190 496 l 25
 190 0 l 1
 110 0 l 1
 110 496 l 1
 0 496 l 9
EndSplineSet
Validated: 1
EndChar

StartChar: iacute
Encoding: 237 237 83
Width: 390
VWidth: 1024
Flags: W
HStem: 0 21G<110 190> 496 84<0 110> 724 84<80 190>
VStem: 0 80<628 724> 110 80<0 496>
LayerCount: 2
Fore
SplineSet
0 628 m 1
 0 724 l 1
 80 808 l 1
 190 808 l 1
 190 724 l 1
 80 724 l 1
 80 628 l 1
 0 628 l 1
0 496 m 9
 0 580 l 1
 110 580 l 1
 190 496 l 25
 190 0 l 1
 110 0 l 1
 110 496 l 1
 0 496 l 9
EndSplineSet
Validated: 1
EndChar

StartChar: icircumflex
Encoding: 238 238 84
Width: 500
VWidth: 1024
Flags: W
HStem: 0 21G<110 190> 496 84<0 110> 732 76<76 224>
VStem: 0 76<656 732> 110 80<0 496> 224 76<656 732>
CounterMasks: 1 1c
LayerCount: 2
Fore
SplineSet
0 656 m 25
 0 732 l 1
 76 808 l 25
 224 808 l 25
 300 732 l 25
 300 656 l 25
 224 656 l 25
 224 732 l 25
 76 732 l 25
 76 656 l 1
 0 656 l 25
0 496 m 9
 0 580 l 1
 110 580 l 1
 190 496 l 25
 190 0 l 1
 110 0 l 1
 110 496 l 1
 0 496 l 9
EndSplineSet
Validated: 1
EndChar

StartChar: idieresis
Encoding: 239 239 85
Width: 390
VWidth: 1024
Flags: W
HStem: 0 21G<110 190> 496 84<0 110> 728 80<0 80 110 190>
VStem: 0 80<728 808> 110 80<0 496 728 808>
LayerCount: 2
Fore
SplineSet
110 728 m 1
 110 808 l 1
 190 808 l 1
 190 728 l 1
 110 728 l 1
0 728 m 1
 0 808 l 1
 80 808 l 1
 80 728 l 1
 0 728 l 1
0 496 m 9
 0 580 l 1
 110 580 l 1
 190 496 l 25
 190 0 l 1
 110 0 l 1
 110 496 l 1
 0 496 l 9
EndSplineSet
Validated: 1
EndChar

StartChar: five
Encoding: 53 53 86
Width: 670
VWidth: 1024
Flags: W
HStem: 0 84<0 450> 248 84<80 450> 496 84<80 418>
VStem: 0 80<332 496> 450 80<84 248>
CounterMasks: 1 e0
LayerCount: 2
Fore
SplineSet
0 0 m 9
 0 84 l 17
 450 84 l 1
 450 248 l 1
 0 248 l 1
 0 496 l 1
 80 580 l 1
 418 580 l 1
 418 496 l 1
 80 496 l 1
 80 332 l 1
 450 332 l 17
 530 248 l 1
 530 0 l 1
 0 0 l 9
EndSplineSet
Validated: 1
EndChar

StartChar: Ccedilla
Encoding: 199 199 87
Width: 660
VWidth: 1024
Flags: W
HStem: 0 84<80 255 342 530> 496 84<80 530>
VStem: 0 80<84 496> 255 87<-65 0>
LayerCount: 2
Fore
SplineSet
0 84 m 1
 0 496 l 1
 80 580 l 1
 530 580 l 1
 530 496 l 1
 80 496 l 1
 80 84 l 1
 530 84 l 1
 530 0 l 1
 342 0 l 1
 342 -65 l 1
 255 -132 l 1
 255 0 l 1
 80 0 l 1
 0 84 l 1
EndSplineSet
Validated: 1
EndChar

StartChar: B
Encoding: 66 66 88
Width: 670
VWidth: 1024
Flags: W
HStem: 0 84<0 450> 248 84<0 450> 496 84<0 450>
VStem: 450 80<84 248 332 496>
CounterMasks: 1 e0
LayerCount: 2
Fore
SplineSet
0 0 m 1
 0 84 l 1
 450 84 l 1
 450 248 l 1
 0 248 l 1
 0 332 l 9
 450 332 l 1
 450 496 l 1
 0 496 l 1
 0 580 l 1
 450 580 l 1
 530 496 l 1
 530 84 l 1
 450 0 l 1
 0 0 l 1
EndSplineSet
Validated: 1
EndChar

StartChar: plus
Encoding: 43 43 89
Width: 670
VWidth: 1024
Flags: W
HStem: 0 21G<225 305> 248 84<0 225 305 530> 560 20G<225 305>
VStem: 225 80<0 248 332 580>
LayerCount: 2
Fore
SplineSet
0 248 m 1
 0 332 l 1
 225 332 l 1
 225 580 l 1
 305 580 l 1
 305 332 l 1
 530 332 l 1
 530 248 l 1
 305 248 l 1
 305 0 l 1
 225 0 l 1
 225 248 l 1
 0 248 l 1
EndSplineSet
Validated: 1
EndChar

StartChar: hyphen
Encoding: 45 45 90
Width: 580
VWidth: 1024
Flags: W
HStem: 248 84<0 350>
LayerCount: 2
Fore
SplineSet
0 248 m 1
 0 332 l 1
 350 332 l 1
 350 248 l 1
 0 248 l 1
EndSplineSet
Validated: 1
EndChar

StartChar: period
Encoding: 46 46 91
Width: 250
VWidth: 1024
Flags: W
HStem: 0 84<0 80>
VStem: 0 80<0 84>
LayerCount: 2
Fore
SplineSet
0 0 m 1
 0 84 l 1
 80 84 l 1
 80 0 l 1
 0 0 l 1
EndSplineSet
Validated: 1
EndChar

StartChar: colon
Encoding: 58 58 92
Width: 250
VWidth: 1024
Flags: W
HStem: 0 84<0 80> 496 84<0 80>
VStem: 0 80<0 84 496 580>
LayerCount: 2
Fore
SplineSet
0 496 m 1
 0 580 l 1
 80 580 l 1
 80 496 l 1
 0 496 l 1
0 0 m 1
 0 84 l 1
 80 84 l 1
 80 0 l 1
 0 0 l 1
EndSplineSet
Validated: 1
EndChar

StartChar: h
Encoding: 104 104 93
Width: 700
VWidth: 1024
Flags: W
HStem: 0 21G<0 80 450 530> 496 84<80 450> 788 20G<0 80>
VStem: 0 80<0 496 580 808> 450 80<0 496>
LayerCount: 2
Fore
SplineSet
0 0 m 1
 0 808 l 1
 80 808 l 25
 80 580 l 1
 450 580 l 1
 530 496 l 1
 530 -0 l 1
 450 0 l 1
 450 496 l 1
 80 496 l 9
 80 0 l 17
 0 0 l 1
EndSplineSet
Validated: 1
EndChar

StartChar: L
Encoding: 76 76 94
Width: 630
VWidth: 1024
Flags: W
HStem: 0 84<80 530> 560 20G<0 80>
VStem: 0 80<84 580>
LayerCount: 2
Fore
SplineSet
0 84 m 1
 0 580 l 25
 80 580 l 1
 80 84 l 1
 530 84 l 1
 530 0 l 1
 80 0 l 1
 0 84 l 1
EndSplineSet
Validated: 1
EndChar

StartChar: l
Encoding: 108 108 95
Width: 630
VWidth: 1024
Flags: W
HStem: 0 84<80 530> 560 20G<0 80>
VStem: 0 80<84 580>
LayerCount: 2
Fore
SplineSet
0 84 m 1
 0 580 l 25
 80 580 l 1
 80 84 l 1
 530 84 l 1
 530 0 l 1
 80 0 l 1
 0 84 l 1
EndSplineSet
Validated: 1
EndChar

StartChar: Ntilde
Encoding: 209 209 96
Width: 700
VWidth: 1024
Flags: W
HStem: 0 21G<0 80 450 530> 496 84<80 450> 648 80<325 375> 728 80<155 213>
VStem: 0 80<0 496> 75 80<648 728> 375 80<728 808> 450 80<0 496>
LayerCount: 2
Fore
SplineSet
75 648 m 25xe6
 75 728 l 1
 155 808 l 25
 239 808 l 1xd6
 325 728 l 1
 375 728 l 1xe6
 375 808 l 1
 455 808 l 1
 455 728 l 1xd6
 375 648 l 1
 299 648 l 25xe6
 213 728 l 25
 155 728 l 25xd6
 155 648 l 1
 75 648 l 25xe6
0 0 m 25xc9
 0 496 l 1
 80 580 l 25
 450 580 l 1
 530 496 l 25
 530 0 l 1
 450 0 l 1
 450 496 l 25
 80 496 l 25
 80 0 l 1
 0 0 l 25xc9
EndSplineSet
Validated: 1
EndChar

StartChar: Eth
Encoding: 208 208 97
Width: 760
VWidth: 1024
Flags: W
HStem: 0 84<130 580> 248 84<0 334> 496 84<130 580>
VStem: 580 80<84 496>
CounterMasks: 1 e0
LayerCount: 2
Fore
SplineSet
0 248 m 1
 0 332 l 1
 334 332 l 1
 334 248 l 1
 0 248 l 1
130 0 m 9
 130 84 l 17
 580 84 l 1
 580 496 l 1
 130 496 l 1
 130 580 l 17
 580 580 l 1
 660 496 l 1
 660 84 l 1
 580 0 l 1
 130 0 l 9
EndSplineSet
Validated: 1
EndChar

StartChar: eth
Encoding: 240 240 98
Width: 760
VWidth: 1024
Flags: W
HStem: 0 84<80 530> 248 84<326 660> 496 84<80 450> 788 20G<450 530>
VStem: 0 80<84 496> 450 80<580 808>
LayerCount: 2
Fore
SplineSet
326 248 m 1
 326 332 l 1
 660 332 l 1
 660 248 l 1
 326 248 l 1
0 84 m 1
 0 496 l 1
 80 580 l 1
 450 580 l 1
 450 808 l 25
 530 808 l 1
 530 496 l 1
 80 496 l 1
 80 84 l 1
 530 84 l 9
 530 0 l 1
 80 0 l 1
 0 84 l 1
EndSplineSet
Validated: 1
EndChar

StartChar: questiondown
Encoding: 191 191 99
Width: 700
VWidth: 1024
Flags: W
HStem: -216 84<80 530> 280 84<80 530> 496 84<450 530>
VStem: 0 80<-132 280> 450 80<496 580>
LayerCount: 2
Fore
SplineSet
450 496 m 1
 450 580 l 1
 530 580 l 1
 530 496 l 1
 450 496 l 1
0 -132 m 1
 0 280 l 1
 80 364 l 1
 530 364 l 9
 530 280 l 17
 80 280 l 1
 80 -132 l 1
 530 -132 l 1
 530 -216 l 17
 80 -216 l 1
 0 -132 l 1
EndSplineSet
Validated: 1
EndChar

StartChar: onequarter
Encoding: 188 188 100
Width: 680
VWidth: 1024
Flags: W
HStem: 0 84<0 225 530 640> 496 84<305 530>
VStem: 0 80<304 580> 225 80<84 496> 450 80<84 220>
CounterMasks: 1 38
LayerCount: 2
Fore
SplineSet
450 0 m 1
 450 220 l 1
 530 220 l 1
 530 84 l 1
 640 84 l 1
 640 0 l 1
 450 0 l 1
0 304 m 1
 0 580 l 1
 80 580 l 1
 80 304 l 1
 0 304 l 1
0 0 m 1
 0 84 l 25
 225 84 l 1
 225 496 l 17
 305 580 l 1
 530 580 l 1
 530 496 l 1
 305 496 l 9
 305 84 l 1
 225 0 l 9
 0 0 l 1
EndSplineSet
Validated: 1
EndChar

StartChar: degree
Encoding: 176 176 101
Width: 470
VWidth: 1024
Flags: W
HStem: 280 84<80 220> 496 84<80 220>
VStem: 0 80<364 496> 220 80<364 496>
LayerCount: 2
Fore
SplineSet
0 364 m 1
 0 496 l 1
 80 580 l 1
 220 580 l 1
 300 496 l 1
 300 364 l 9
 220 280 l 1
 80 280 l 1
 0 364 l 1
80 364 m 1
 220 364 l 1
 220 496 l 1
 80 496 l 1
 80 364 l 1
EndSplineSet
Validated: 1
AlternateSubs2: "Subtable 'salt'" uniE008
EndChar

StartChar: asterisk
Encoding: 42 42 102
Width: 750
VWidth: 1024
Flags: W
HStem: 0 21G<140 220 360 440> 248 84<0 140 220 360 440 580> 560 20G<140 220 360 440>
VStem: 140 80<0 248 332 580> 360 80<0 248 332 580>
LayerCount: 2
Fore
SplineSet
0 248 m 1
 0 332 l 1
 140 332 l 1
 140 580 l 1
 220 580 l 1
 220 332 l 1
 360 332 l 1
 360 580 l 1
 440 580 l 1
 440 332 l 1
 580 332 l 1
 580 248 l 1
 440 248 l 1
 440 0 l 1
 360 0 l 1
 360 248 l 1
 220 248 l 1
 220 0 l 1
 140 0 l 1
 140 248 l 1
 0 248 l 1
EndSplineSet
Validated: 1
EndChar

StartChar: parenleft
Encoding: 40 40 103
Width: 350
VWidth: 1024
Flags: W
HStem: 0 84<80 190> 496 84<80 190>
VStem: 0 80<84 496>
LayerCount: 2
Fore
SplineSet
0 84 m 1
 0 496 l 1
 80 580 l 1
 190 580 l 9
 190 496 l 1
 80 496 l 1
 80 84 l 1
 190 84 l 9
 190 0 l 17
 80 0 l 1
 0 84 l 1
EndSplineSet
Validated: 1
EndChar

StartChar: parenright
Encoding: 41 41 104
Width: 350
VWidth: 1024
Flags: W
HStem: 0 84<0 110> 496 84<0 110>
VStem: 110 80<84 496>
LayerCount: 2
Fore
SplineSet
0 0 m 9
 0 84 l 17
 110 84 l 1
 110 496 l 1
 0 496 l 1
 0 580 l 17
 110 580 l 1
 190 496 l 1
 190 84 l 1
 110 0 l 1
 0 0 l 9
EndSplineSet
Validated: 1
EndChar

StartChar: quotesingle
Encoding: 39 39 105
Width: 250
VWidth: 1024
Flags: W
HStem: 376 204<0 80>
VStem: 0 80<376 580>
LayerCount: 2
Fore
SplineSet
0 376 m 1
 0 580 l 1
 80 580 l 1
 80 376 l 1
 0 376 l 1
EndSplineSet
Validated: 1
EndChar

StartChar: quotedbl
Encoding: 34 34 106
Width: 470
VWidth: 1024
Flags: W
HStem: 376 204<0 80 160 240>
VStem: 0 80<376 580> 160 80<376 580>
LayerCount: 2
Fore
SplineSet
160 376 m 1
 160 580 l 1
 240 580 l 1
 240 376 l 1
 160 376 l 1
0 376 m 1
 0 580 l 1
 80 580 l 1
 80 376 l 1
 0 376 l 1
EndSplineSet
Validated: 1
EndChar

StartChar: F
Encoding: 70 70 107
Width: 660
VWidth: 1024
Flags: W
HStem: 0 21G<0 80> 248 84<80 530> 496 84<80 530>
VStem: 0 80<0 248 332 496>
LayerCount: 2
Fore
SplineSet
0 0 m 1
 0 496 l 1
 80 580 l 1
 530 580 l 1
 530 496 l 1
 80 496 l 1
 80 332 l 1
 530 332 l 17
 530 248 l 1
 80 248 l 1
 80 0 l 1
 0 0 l 1
EndSplineSet
Validated: 1
EndChar

StartChar: comma
Encoding: 44 44 108
Width: 370
VWidth: 1024
Flags: W
HStem: -84 84<0 110>
VStem: 110 80<0 136>
LayerCount: 2
Fore
SplineSet
0 -84 m 1
 0 0 l 17
 110 0 l 1
 110 136 l 1
 190 136 l 1
 190 0 l 1
 110 -84 l 1
 0 -84 l 1
EndSplineSet
Validated: 1
EndChar

StartChar: semicolon
Encoding: 59 59 109
Width: 340
VWidth: 1024
Flags: W
HStem: -84 84<0 110> 496 84<110 190>
VStem: 110 80<0 136 496 580>
LayerCount: 2
Fore
SplineSet
110 496 m 1
 110 580 l 1
 190 580 l 1
 190 496 l 1
 110 496 l 1
0 -84 m 1
 0 0 l 17
 110 0 l 1
 110 136 l 1
 190 136 l 1
 190 0 l 1
 110 -84 l 1
 0 -84 l 1
EndSplineSet
Validated: 1
EndChar

StartChar: f
Encoding: 102 102 110
Width: 660
VWidth: 1024
InSpiro: 1
Flags: W
HStem: -216 21G<0 80> 0 84<80 530> 496 84<80 530>
VStem: 0 80<-216 0 84 496>
LayerCount: 2
Fore
SplineSet
0 -216 m 1
 0 496 l 1
 80 580 l 1
 530 580 l 1
 530 496 l 1
 80 496 l 1
 80 84 l 1
 530 84 l 1
 530 0 l 1
 80 0 l 1
 80 -216 l 1
 0 -216 l 1
  Spiro
    0 -216 v
    0 496 v
    80 580 v
    530 580 v
    530 496 v
    80 496 v
    80 84 v
    530 84 v
    530 0 v
    80 0 v
    80 -216 v
    0 0 z
  EndSpiro
EndSplineSet
Validated: 1
EndChar

StartChar: exclamdown
Encoding: 161 161 111
Width: 630
VWidth: 1024
Flags: W
HStem: -216 21G<450 530> 280 84<0 450> 496 84<450 530>
VStem: 450 80<-216 280 496 580>
LayerCount: 2
Fore
SplineSet
450 496 m 1
 450 580 l 1
 530 580 l 1
 530 496 l 1
 450 496 l 1
0 280 m 9
 0 364 l 17
 450 364 l 1
 530 280 l 1
 530 -216 l 1
 450 -216 l 1
 450 280 l 1
 0 280 l 9
EndSplineSet
Validated: 1
AlternateSubs2: "Subtable 'salt'" uniE007
EndChar

StartChar: exclam
Encoding: 33 33 112
Width: 250
VWidth: 1024
Flags: W
HStem: 0 84<0 80> 788 20G<0 80>
VStem: 0 80<0 84 300 808>
LayerCount: 2
Fore
SplineSet
0 0 m 1
 0 84 l 1
 80 84 l 1
 80 0 l 1
 0 0 l 1
0 300 m 1
 0 808 l 1
 80 808 l 1
 80 216 l 1
 0 300 l 1
EndSplineSet
Validated: 1
EndChar

StartChar: S
Encoding: 83 83 113
Width: 680
VWidth: 1024
Flags: W
HStem: 0 84<0 450> 248 84<80 450> 496 84<80 530>
VStem: 0 80<332 496> 450 80<84 248>
CounterMasks: 1 e0
LayerCount: 2
Fore
SplineSet
0 0 m 1
 0 84 l 17
 450 84 l 1
 450 248 l 9
 80 248 l 1
 0 332 l 1
 0 496 l 1
 80 580 l 1
 530 580 l 1
 530 496 l 1
 80 496 l 1
 80 332 l 1
 450 332 l 17
 530 248 l 1
 530 84 l 1
 450 0 l 1
 0 0 l 1
EndSplineSet
Validated: 1
EndChar

StartChar: s
Encoding: 115 115 114
Width: 680
VWidth: 1024
Flags: W
HStem: 0 84<0 450> 248 84<80 450> 496 84<80 530>
VStem: 0 80<332 496> 450 80<84 248>
CounterMasks: 1 e0
LayerCount: 2
Fore
SplineSet
0 0 m 1
 0 84 l 17
 450 84 l 1
 450 248 l 9
 80 248 l 1
 0 332 l 1
 0 496 l 1
 80 580 l 1
 530 580 l 1
 530 496 l 1
 80 496 l 1
 80 332 l 1
 450 332 l 17
 530 248 l 1
 530 84 l 1
 450 0 l 1
 0 0 l 1
EndSplineSet
Validated: 1
EndChar

StartChar: Scaron
Encoding: 352 352 115
Width: 680
VWidth: 1024
Flags: W
HStem: 0 84<0 450> 248 84<80 450> 496 84<80 530> 656 76<191 339> 788 20G<115 191 339 415>
VStem: 0 80<332 496> 115 76<732 808> 339 76<732 808> 450 80<84 248>
LayerCount: 2
Fore
SplineSet
115 732 m 1
 115 808 l 25
 191 808 l 1
 191 732 l 25
 339 732 l 25
 339 808 l 25
 415 808 l 25
 415 732 l 25
 339 656 l 25
 191 656 l 25
 115 732 l 1
0 0 m 1
 0 84 l 17
 450 84 l 1
 450 248 l 9
 80 248 l 1
 0 332 l 1
 0 496 l 1
 80 580 l 1
 530 580 l 1
 530 496 l 1
 80 496 l 1
 80 332 l 1
 450 332 l 17
 530 248 l 1
 530 84 l 1
 450 0 l 1
 0 0 l 1
EndSplineSet
Validated: 1
EndChar

StartChar: scaron
Encoding: 353 353 116
Width: 680
VWidth: 1024
Flags: W
HStem: 0 84<0 450> 248 84<80 450> 496 84<80 530> 656 76<191 339> 788 20G<115 191 339 415>
VStem: 0 80<332 496> 115 76<732 808> 339 76<732 808> 450 80<84 248>
LayerCount: 2
Fore
SplineSet
115 732 m 1
 115 808 l 25
 191 808 l 1
 191 732 l 25
 339 732 l 25
 339 808 l 25
 415 808 l 25
 415 732 l 25
 339 656 l 25
 191 656 l 25
 115 732 l 1
0 0 m 1
 0 84 l 17
 450 84 l 1
 450 248 l 9
 80 248 l 1
 0 332 l 1
 0 496 l 1
 80 580 l 1
 530 580 l 1
 530 496 l 1
 80 496 l 1
 80 332 l 1
 450 332 l 17
 530 248 l 1
 530 84 l 1
 450 0 l 1
 0 0 l 1
EndSplineSet
Validated: 1
EndChar

StartChar: Zcaron
Encoding: 381 381 117
Width: 680
VWidth: 1024
Flags: W
HStem: 0 84<80 530> 248 84<80 450> 496 84<0 450> 656 76<191 339> 788 20G<115 191 339 415>
VStem: 0 80<84 248> 115 76<732 808> 339 76<732 808> 450 80<332 496>
LayerCount: 2
Fore
SplineSet
115 732 m 1
 115 808 l 25
 191 808 l 1
 191 732 l 25
 339 732 l 25
 339 808 l 25
 415 808 l 25
 415 732 l 25
 339 656 l 25
 191 656 l 25
 115 732 l 1
0 0 m 1
 0 248 l 1
 80 332 l 9
 450 332 l 1
 450 496 l 1
 0 496 l 1
 0 580 l 17
 530 580 l 1
 530 332 l 9
 450 248 l 1
 80 248 l 17
 80 84 l 1
 530 84 l 9
 530 0 l 17
 0 0 l 1
EndSplineSet
Validated: 1
EndChar

StartChar: zcaron
Encoding: 382 382 118
Width: 680
VWidth: 1024
Flags: W
HStem: 0 84<80 530> 248 84<80 450> 496 84<0 450> 656 76<191 339> 788 20G<115 191 339 415>
VStem: 0 80<84 248> 115 76<732 808> 339 76<732 808> 450 80<332 496>
LayerCount: 2
Fore
SplineSet
115 732 m 1
 115 808 l 25
 191 808 l 1
 191 732 l 25
 339 732 l 25
 339 808 l 25
 415 808 l 25
 415 732 l 25
 339 656 l 25
 191 656 l 25
 115 732 l 1
0 0 m 1
 0 248 l 1
 80 332 l 9
 450 332 l 1
 450 496 l 1
 0 496 l 1
 0 580 l 17
 530 580 l 1
 530 332 l 9
 450 248 l 1
 80 248 l 17
 80 84 l 1
 530 84 l 9
 530 0 l 17
 0 0 l 1
EndSplineSet
Validated: 1
EndChar

StartChar: T
Encoding: 84 84 119
Width: 680
VWidth: 1024
Flags: W
HStem: 0 21G<225 305> 496 84<0 225 305 530>
VStem: 225 80<0 496>
LayerCount: 2
Fore
SplineSet
0 496 m 9
 0 580 l 1
 530 580 l 1
 530 496 l 17
 305 496 l 1
 305 0 l 1
 225 0 l 1
 225 496 l 1
 0 496 l 9
EndSplineSet
Validated: 1
EndChar

StartChar: t
Encoding: 116 116 120
Width: 630
VWidth: 1024
Flags: W
HStem: 0 21G<0 80> 496 84<80 530> 788 20G<0 80>
VStem: 0 80<0 496 580 808>
LayerCount: 2
Fore
SplineSet
0 0 m 1
 0 808 l 1
 80 808 l 1
 80 580 l 1
 530 580 l 1
 530 496 l 1
 80 496 l 1
 80 0 l 1
 0 0 l 1
EndSplineSet
Validated: 1
EndChar

StartChar: seven
Encoding: 55 55 121
Width: 620
VWidth: 1024
Flags: W
HStem: 0 21G<330 410> 496 84<0 330>
VStem: 330 80<0 496>
LayerCount: 2
Fore
SplineSet
0 496 m 1
 0 580 l 1
 330 580 l 1
 410 496 l 25
 410 0 l 1
 330 0 l 1
 330 496 l 1
 0 496 l 1
EndSplineSet
Validated: 1
EndChar

StartChar: AE
Encoding: 198 198 122
Width: 700
VWidth: 1024
Flags: W
HStem: 0 84<336 560> 248 84<80 256 336 560> 496 84<80 256 336 560>
VStem: 0 80<0 248 332 496> 256 80<84 248 332 496>
CounterMasks: 1 e0
LayerCount: 2
Fore
SplineSet
80 332 m 1
 256 332 l 1
 256 496 l 1
 80 496 l 1
 80 332 l 1
0 0 m 25
 0 496 l 1
 80 580 l 1
 560 580 l 1
 560 496 l 1
 336 496 l 1
 336 332 l 1
 560 332 l 17
 560 248 l 1
 336 248 l 1
 336 84 l 1
 560 84 l 1
 560 0 l 9
 256 0 l 1
 256 248 l 9
 80 248 l 1
 80 0 l 25
 0 0 l 25
EndSplineSet
Validated: 1
EndChar

StartChar: ae
Encoding: 230 230 123
Width: 700
VWidth: 1024
Flags: W
HStem: 0 84<336 560> 248 84<80 256 336 560> 496 84<80 256 336 560>
VStem: 0 80<0 248 332 496> 256 80<84 248 332 496>
CounterMasks: 1 e0
LayerCount: 2
Fore
SplineSet
80 332 m 1
 256 332 l 1
 256 496 l 1
 80 496 l 1
 80 332 l 1
0 0 m 25
 0 496 l 1
 80 580 l 1
 560 580 l 1
 560 496 l 1
 336 496 l 1
 336 332 l 1
 560 332 l 17
 560 248 l 1
 336 248 l 1
 336 84 l 1
 560 84 l 1
 560 0 l 9
 256 0 l 1
 256 248 l 9
 80 248 l 1
 80 0 l 25
 0 0 l 25
EndSplineSet
Validated: 1
EndChar

StartChar: oslash
Encoding: 248 248 124
Width: 700
VWidth: 1024
Flags: W
HStem: 0 84<134 450> 496 84<80 396>
VStem: 0 80<154 496> 450 80<84 426>
DStem2: 80 154 134 84 0.678637 0.734474<0 450.873>
LayerCount: 2
Fore
SplineSet
0 84 m 1
 0 496 l 1
 80 580 l 25
 450 580 l 1
 530 496 l 1
 530 84 l 9
 450 0 l 1
 80 0 l 1
 0 84 l 1
134 84 m 17
 450 84 l 1
 450 426 l 9
 134 84 l 17
80 154 m 9
 396 496 l 17
 80 496 l 1
 80 154 l 9
EndSplineSet
Validated: 1
EndChar

StartChar: braceleft
Encoding: 123 123 125
Width: 460
VWidth: 1024
Flags: W
HStem: 0 84<190 300> 248 84<0 110> 496 84<190 300>
VStem: 110 80<84 248 332 496>
CounterMasks: 1 e0
LayerCount: 2
Fore
SplineSet
0 248 m 1
 0 332 l 1
 110 332 l 1
 110 496 l 1
 190 580 l 1
 300 580 l 1
 300 496 l 1
 190 496 l 1
 190 84 l 1
 300 84 l 1
 300 0 l 1
 190 0 l 1
 110 84 l 1
 110 248 l 1
 0 248 l 1
EndSplineSet
Validated: 1
EndChar

StartChar: braceright
Encoding: 125 125 126
Width: 460
VWidth: 1024
Flags: W
HStem: 0 84<0 110> 248 84<190 300> 496 84<0 110>
VStem: 110 80<84 248 332 496>
CounterMasks: 1 e0
LayerCount: 2
Fore
SplineSet
0 0 m 1
 0 84 l 1
 110 84 l 1
 110 496 l 1
 0 496 l 1
 0 580 l 1
 110 580 l 1
 190 496 l 1
 190 332 l 1
 300 332 l 1
 300 248 l 1
 190 248 l 1
 190 84 l 1
 110 0 l 1
 0 0 l 1
EndSplineSet
Validated: 1
EndChar

StartChar: bracketleft
Encoding: 91 91 127
Width: 650
VWidth: 1024
Flags: W
HStem: -216 21G<0 80> 0 84<80 530> 496 84<80 530> 788 20G<0 80>
VStem: 0 80<-216 0 84 496 580 808>
LayerCount: 2
Fore
SplineSet
0 -216 m 1
 0 808 l 1
 80 808 l 1
 80 580 l 1
 530 580 l 1
 530 496 l 1
 80 496 l 1
 80 84 l 1
 530 84 l 1
 530 0 l 1
 80 0 l 1
 80 -216 l 1
 0 -216 l 1
EndSplineSet
Validated: 1
EndChar

StartChar: bracketright
Encoding: 93 93 128
Width: 700
VWidth: 1024
Flags: W
HStem: -216 21G<450 530> 0 84<0 450> 496 84<0 450> 788 20G<450 530>
VStem: 450 80<-216 0 84 496 580 808>
LayerCount: 2
Fore
SplineSet
0 0 m 1
 0 84 l 1
 450 84 l 1
 450 496 l 1
 0 496 l 1
 0 580 l 1
 450 580 l 1
 450 808 l 1
 530 808 l 1
 530 -216 l 1
 450 -216 l 1
 450 0 l 1
 0 0 l 1
EndSplineSet
Validated: 1
EndChar

StartChar: brokenbar
Encoding: 166 166 129
Width: 250
VWidth: 1024
Flags: W
HStem: -216 21G<0 80> 788 20G<0 80>
VStem: 0 80<-216 248 332 808>
LayerCount: 2
Fore
SplineSet
0 332 m 1
 0 808 l 1
 80 808 l 1
 80 332 l 1
 0 332 l 1
0 -216 m 1
 0 248 l 1
 80 248 l 1
 80 -216 l 1
 0 -216 l 1
EndSplineSet
Validated: 1
EndChar

StartChar: sterling
Encoding: 163 163 130
Width: 670
VWidth: 1024
Flags: W
HStem: 0 84<80 452> 294 84<80 190> 496 84<80 326>
VStem: 0 80<84 294 378 496>
LayerCount: 2
Fore
SplineSet
0 84 m 1
 0 496 l 1
 80 580 l 1
 326 580 l 1
 326 496 l 1
 80 496 l 1
 80 378 l 1
 190 378 l 17
 190 294 l 1
 80 294 l 1
 80 84 l 1
 452 84 l 1
 452 0 l 1
 80 0 l 1
 0 84 l 1
EndSplineSet
Validated: 1
EndChar

StartChar: endash
Encoding: 8211 8211 131
Width: 630
VWidth: 1024
Flags: W
HStem: 248 84<0 452>
LayerCount: 2
Fore
SplineSet
0 248 m 1
 0 332 l 1
 452 332 l 1
 452 248 l 1
 0 248 l 1
EndSplineSet
Validated: 1
EndChar

StartChar: emdash
Encoding: 8212 8212 132
Width: 890
VWidth: 1024
Flags: W
HStem: 248 84<0 717>
LayerCount: 2
Fore
SplineSet
0 248 m 1
 0 332 l 1
 717 332 l 1
 717 248 l 1
 0 248 l 1
EndSplineSet
Validated: 1
EndChar

StartChar: four
Encoding: 52 52 133
Width: 720
VWidth: 1024
Flags: W
HStem: 0 21G<450 530> 248 84<80 450> 560 20G<0 80 450 530>
VStem: 0 80<332 580> 450 80<0 248 332 580>
LayerCount: 2
Fore
SplineSet
0 332 m 1
 0 580 l 1
 80 580 l 1
 80 332 l 1
 450 332 l 1
 450 580 l 9
 530 580 l 9
 530 0 l 17
 450 0 l 1
 450 248 l 1
 80 248 l 1
 0 332 l 1
EndSplineSet
Validated: 1
EndChar

StartChar: eight
Encoding: 56 56 134
Width: 690
VWidth: 1024
Flags: W
HStem: 0 84<80 450> 248 84<80 450> 496 84<80 450>
VStem: 0 80<84 248 332 496> 450 80<84 248 332 496>
CounterMasks: 1 e0
LayerCount: 2
Fore
SplineSet
0 84 m 1
 0 496 l 1
 80 580 l 1
 450 580 l 1
 530 496 l 1
 530 84 l 1
 450 0 l 1
 80 0 l 1
 0 84 l 1
80 332 m 1
 450 332 l 1
 450 496 l 1
 80 496 l 1
 80 332 l 1
80 84 m 1
 450 84 l 1
 450 248 l 1
 80 248 l 1
 80 84 l 1
EndSplineSet
Validated: 1
EndChar

StartChar: dollar
Encoding: 36 36 135
Width: 680
VWidth: 1024
Flags: W
HStem: 0 84<80 225 305 450> 248 84<80 450> 496 84<80 225 305 450>
VStem: 0 80<332 496> 225 80<-132 0 580 732> 450 80<84 248>
CounterMasks: 1 fc
LayerCount: 2
Fore
SplineSet
0 332 m 1
 0 496 l 1
 80 580 l 1
 225 580 l 1
 225 732 l 1
 305 732 l 1
 305 580 l 1
 450 580 l 1
 450 496 l 1
 80 496 l 1
 80 332 l 1
 450 332 l 1
 530 248 l 1
 530 84 l 1
 450 0 l 1
 305 -0 l 1
 305 -132 l 1
 225 -132 l 1
 225 0 l 1
 80 0 l 1
 80 84 l 1
 450 84 l 1
 450 248 l 1
 80 248 l 1
 0 332 l 1
EndSplineSet
Validated: 1
EndChar

StartChar: equal
Encoding: 61 61 136
Width: 670
VWidth: 1024
Flags: W
HStem: 136 84<0 530> 376 84<0 530>
LayerCount: 2
Fore
SplineSet
0 376 m 1
 0 460 l 1
 530 460 l 1
 530 376 l 1
 0 376 l 1
0 136 m 1
 0 220 l 1
 530 220 l 1
 530 136 l 1
 0 136 l 1
EndSplineSet
Validated: 1
EndChar

StartChar: six
Encoding: 54 54 137
Width: 710
VWidth: 1024
Flags: W
HStem: 0 84<80 450> 248 84<80 450> 560 20G<0 80>
VStem: 0 80<84 248 332 580> 450 80<84 248>
LayerCount: 2
Fore
SplineSet
0 84 m 1
 0 580 l 1
 80 580 l 1
 80 332 l 1
 450 332 l 1
 530 248 l 17
 530 84 l 1
 450 0 l 1
 80 0 l 25
 0 84 l 1
80 84 m 25
 450 84 l 25
 450 248 l 25
 80 248 l 25
 80 84 l 25
EndSplineSet
Validated: 1
EndChar

StartChar: nine
Encoding: 57 57 138
Width: 680
VWidth: 1024
Flags: W
HStem: 0 21G<450 530> 248 84<80 450> 496 84<80 450>
VStem: 0 80<332 496> 450 80<0 248 332 496>
LayerCount: 2
Fore
SplineSet
0 332 m 17
 0 496 l 1
 80 580 l 1
 450 580 l 25
 530 496 l 1
 530 0 l 1
 450 0 l 1
 450 248 l 1
 80 248 l 1
 0 332 l 17
80 332 m 25
 450 332 l 25
 450 496 l 25
 80 496 l 25
 80 332 l 25
EndSplineSet
Validated: 1
EndChar

StartChar: less
Encoding: 60 60 139
Width: 620
VWidth: 1024
Flags: W
HStem: 0 84<342 452> 248 84<0 262> 496 84<342 452>
VStem: 262 80<84 248 332 496>
CounterMasks: 1 e0
LayerCount: 2
Fore
SplineSet
0 248 m 1
 0 332 l 1
 262 332 l 1
 262 496 l 1
 342 580 l 1
 452 580 l 1
 452 496 l 1
 342 496 l 1
 342 84 l 1
 452 84 l 1
 452 0 l 1
 342 0 l 1
 262 84 l 1
 262 248 l 1
 0 248 l 1
EndSplineSet
Validated: 1
EndChar

StartChar: greater
Encoding: 62 62 140
Width: 620
VWidth: 1024
Flags: W
HStem: 0 84<0 110> 248 84<190 452> 496 84<0 110>
VStem: 110 80<84 248 332 496>
CounterMasks: 1 e0
LayerCount: 2
Fore
SplineSet
0 0 m 1
 0 84 l 1
 110 84 l 1
 110 496 l 1
 0 496 l 1
 0 580 l 1
 110 580 l 1
 190 496 l 1
 190 332 l 1
 452 332 l 1
 452 248 l 1
 190 248 l 1
 190 84 l 1
 110 0 l 1
 0 0 l 1
EndSplineSet
Validated: 1
EndChar

StartChar: Y
Encoding: 89 89 141
Width: 670
VWidth: 1024
Flags: W
HStem: 0 21G<225 305> 248 84<80 225 305 450> 560 20G<0 80 450 530>
VStem: 0 80<332 580> 225 80<0 248> 450 80<332 580>
CounterMasks: 1 1c
LayerCount: 2
Fore
SplineSet
0 332 m 1
 0 580 l 1
 80 580 l 1
 80 332 l 25
 450 332 l 25
 450 580 l 1
 530 580 l 1
 530 332 l 25
 450 248 l 1
 305 248 l 9
 305 0 l 1
 225 0 l 1
 225 248 l 1
 80 248 l 1
 0 332 l 1
EndSplineSet
Validated: 1
EndChar

StartChar: y
Encoding: 121 121 142
Width: 670
VWidth: 1024
Flags: W
HStem: 0 21G<225 305> 248 84<80 225 305 450> 560 20G<0 80 450 530>
VStem: 0 80<332 580> 225 80<0 248> 450 80<332 580>
CounterMasks: 1 1c
LayerCount: 2
Fore
SplineSet
0 332 m 1
 0 580 l 1
 80 580 l 1
 80 332 l 25
 450 332 l 25
 450 580 l 1
 530 580 l 1
 530 332 l 25
 450 248 l 1
 305 248 l 9
 305 0 l 1
 225 0 l 1
 225 248 l 1
 80 248 l 1
 0 332 l 1
EndSplineSet
Validated: 1
EndChar

StartChar: X
Encoding: 88 88 143
Width: 700
VWidth: 1024
Flags: W
HStem: 0 21G<0 80 450 530> 136 84<80 225 305 450> 376 84<80 225 305 450> 560 20G<0 80 450 530>
VStem: 0 80<0 136 460 580> 225 80<220 376> 450 80<0 136 460 580>
CounterMasks: 1 0e
LayerCount: 2
Fore
SplineSet
0 0 m 1
 0 136 l 1
 80 220 l 1
 225 220 l 1
 225 376 l 1
 80 376 l 1
 0 460 l 1
 0 580 l 1
 80 580 l 1
 80 460 l 1
 450 460 l 1
 450 580 l 1
 530 580 l 1
 530 460 l 1
 450 376 l 1
 305 376 l 1
 305 220 l 1
 450 220 l 1
 530 136 l 1
 530 0 l 1
 450 0 l 1
 450 136 l 1
 80 136 l 1
 80 0 l 1
 0 0 l 1
EndSplineSet
Validated: 1
EndChar

StartChar: x
Encoding: 120 120 144
Width: 700
VWidth: 1024
Flags: W
HStem: 0 21G<0 80 450 530> 136 84<80 225 305 450> 376 84<80 225 305 450> 560 20G<0 80 450 530>
VStem: 0 80<0 136 460 580> 225 80<220 376> 450 80<0 136 460 580>
CounterMasks: 1 0e
LayerCount: 2
Fore
SplineSet
0 0 m 1
 0 136 l 1
 80 220 l 1
 225 220 l 1
 225 376 l 1
 80 376 l 1
 0 460 l 1
 0 580 l 1
 80 580 l 1
 80 460 l 1
 450 460 l 1
 450 580 l 1
 530 580 l 1
 530 460 l 1
 450 376 l 1
 305 376 l 1
 305 220 l 1
 450 220 l 1
 530 136 l 1
 530 0 l 1
 450 0 l 1
 450 136 l 1
 80 136 l 1
 80 0 l 1
 0 0 l 1
EndSplineSet
Validated: 1
EndChar

StartChar: Yacute
Encoding: 221 221 145
Width: 670
VWidth: 1024
Flags: W
HStem: 0 21G<225 305> 248 84<80 225 305 450> 560 20G<0 80 450 530> 724 84<305 415>
VStem: 0 80<332 580> 225 80<0 248 628 724> 450 80<332 580>
CounterMasks: 1 0e
LayerCount: 2
Fore
SplineSet
225 628 m 1
 225 724 l 1
 305 808 l 1
 415 808 l 1
 415 724 l 1
 305 724 l 1
 305 628 l 1
 225 628 l 1
0 332 m 1
 0 580 l 1
 80 580 l 1
 80 332 l 25
 450 332 l 25
 450 580 l 1
 530 580 l 1
 530 332 l 25
 450 248 l 1
 305 248 l 9
 305 0 l 1
 225 0 l 1
 225 248 l 1
 80 248 l 1
 0 332 l 1
EndSplineSet
Validated: 1
EndChar

StartChar: yacute
Encoding: 253 253 146
Width: 670
VWidth: 1024
Flags: W
HStem: 0 21G<225 305> 248 84<80 225 305 450> 560 20G<0 80 450 530> 724 84<305 415>
VStem: 0 80<332 580> 225 80<0 248 628 724> 450 80<332 580>
CounterMasks: 1 0e
LayerCount: 2
Fore
SplineSet
225 628 m 1
 225 724 l 1
 305 808 l 1
 415 808 l 1
 415 724 l 1
 305 724 l 1
 305 628 l 1
 225 628 l 1
0 332 m 1
 0 580 l 1
 80 580 l 1
 80 332 l 25
 450 332 l 25
 450 580 l 1
 530 580 l 1
 530 332 l 25
 450 248 l 1
 305 248 l 9
 305 0 l 1
 225 0 l 1
 225 248 l 1
 80 248 l 1
 0 332 l 1
EndSplineSet
Validated: 1
EndChar

StartChar: ydieresis
Encoding: 255 255 147
Width: 670
VWidth: 1024
Flags: W
HStem: 0 21G<225 305> 248 84<80 225 305 450> 560 20G<0 80 450 530> 728 80<111 191 339 419>
VStem: 0 80<332 580> 111 80<728 808> 225 80<0 248> 339 80<728 808> 450 80<332 580>
LayerCount: 2
Fore
SplineSet
339 728 m 1
 339 808 l 1
 419 808 l 1
 419 728 l 1
 339 728 l 1
111 728 m 1
 111 808 l 1
 191 808 l 1
 191 728 l 1
 111 728 l 1
0 332 m 1
 0 580 l 1
 80 580 l 1
 80 332 l 25
 450 332 l 25
 450 580 l 1
 530 580 l 1
 530 332 l 25
 450 248 l 1
 305 248 l 9
 305 0 l 1
 225 0 l 1
 225 248 l 1
 80 248 l 1
 0 332 l 1
EndSplineSet
Validated: 1
EndChar

StartChar: Ydieresis
Encoding: 376 376 148
Width: 670
VWidth: 1024
Flags: W
HStem: 0 21G<225 305> 248 84<80 225 305 450> 560 20G<0 80 450 530> 728 80<111 191 339 419>
VStem: 0 80<332 580> 111 80<728 808> 225 80<0 248> 339 80<728 808> 450 80<332 580>
LayerCount: 2
Fore
SplineSet
339 728 m 1
 339 808 l 1
 419 808 l 1
 419 728 l 1
 339 728 l 1
111 728 m 1
 111 808 l 1
 191 808 l 1
 191 728 l 1
 111 728 l 1
0 332 m 1
 0 580 l 1
 80 580 l 1
 80 332 l 25
 450 332 l 25
 450 580 l 1
 530 580 l 1
 530 332 l 25
 450 248 l 1
 305 248 l 9
 305 0 l 1
 225 0 l 1
 225 248 l 1
 80 248 l 1
 0 332 l 1
EndSplineSet
Validated: 1
AlternateSubs2: "Subtable 'salt'" uniE005
EndChar

StartChar: germandbls
Encoding: 223 223 149
Width: 660
VWidth: 1024
Flags: W
HStem: 0 84<190 450> 248 84<190 450> 496 84<80 450>
VStem: 0 80<0 496> 450 80<84 248 332 496>
CounterMasks: 1 e0
LayerCount: 2
Fore
SplineSet
0 0 m 1
 0 496 l 1
 80 580 l 1
 450 580 l 1
 530 496 l 1
 530 84 l 1
 450 0 l 1
 190 0 l 9
 190 84 l 1
 450 84 l 1
 450 248 l 1
 190 248 l 9
 190 332 l 1
 450 332 l 1
 450 496 l 1
 80 496 l 1
 80 0 l 1
 0 0 l 1
EndSplineSet
Validated: 1
AlternateSubs2: "Subtable 'salt'" uniE006
EndChar

StartChar: yen
Encoding: 165 165 150
Width: 670
VWidth: 1024
Flags: W
HStem: 0 21G<225 305> 80 84<0 225 305 530> 248 84<0 225 305 530> 376 84<80 225 305 450> 560 20G<0 80 450 530>
VStem: 0 80<460 580> 225 80<0 80 164 248 332 376> 450 80<460 580>
CounterMasks: 1 07
LayerCount: 2
Fore
SplineSet
0 80 m 1
 0 164 l 1
 225 164 l 1
 225 248 l 1
 0 248 l 1
 0 332 l 1
 225 332 l 1
 225 376 l 1
 80 376 l 1
 0 460 l 1
 0 580 l 1
 80 580 l 1
 80 460 l 1
 450 460 l 1
 450 580 l 1
 530 580 l 1
 530 460 l 1
 450 376 l 1
 305 376 l 1
 305 332 l 1
 530 332 l 1
 530 248 l 1
 305 248 l 1
 305 164 l 1
 530 164 l 1
 530 80 l 1
 305 80 l 1
 305 0 l 1
 225 0 l 1
 225 80 l 1
 0 80 l 1
EndSplineSet
Validated: 1
EndChar

StartChar: plusminus
Encoding: 177 177 151
Width: 670
VWidth: 1024
Flags: W
HStem: -84 84<0 225 305 530> 248 84<0 225 305 530> 560 20G<225 305>
VStem: 225 80<0 248 332 580>
LayerCount: 2
Fore
SplineSet
0 -84 m 1
 0 0 l 1
 225 -0 l 1
 225 248 l 1
 0 248 l 1
 0 332 l 1
 225 332 l 1
 225 580 l 1
 305 580 l 1
 305 332 l 1
 530 332 l 1
 530 248 l 1
 305 248 l 1
 305 -0 l 1
 530 0 l 1
 530 -84 l 1
 0 -84 l 1
EndSplineSet
Validated: 1
EndChar

StartChar: mu
Encoding: 181 181 152
Width: 700
VWidth: 1024
Flags: W
HStem: -216 21G<0 80> 0 84<80 450 530 620> 560 20G<0 80 450 530>
VStem: 0 80<-216 0 84 580> 450 80<84 580>
LayerCount: 2
Fore
SplineSet
0 -216 m 1
 0 580 l 1
 80 580 l 1
 80 84 l 1
 450 84 l 1
 450 580 l 1
 530 580 l 1
 530 84 l 1
 620 84 l 1
 620 0 l 1
 80 0 l 1
 80 -216 l 25
 0 -216 l 1
EndSplineSet
Validated: 1
EndChar

StartChar: paragraph
Encoding: 182 182 153
Width: 660
VWidth: 1024
Flags: W
HStem: -216 21G<300 380 450 530> 0 84<80 300 380 450> 496 84<80 300 380 450>
VStem: 0 80<84 496> 300 80<-216 0 84 496> 450 80<-216 0 84 496>
LayerCount: 2
Fore
SplineSet
80 84 m 1
 300 84 l 1
 300 496 l 1
 80 496 l 1
 80 84 l 1
380 84 m 1
 450 84 l 1
 450 496 l 1
 380 496 l 1
 380 84 l 1
0 84 m 1
 0 496 l 1
 80 580 l 1
 450 580 l 1
 530 496 l 1
 530 -216 l 17
 450 -216 l 1
 450 0 l 1
 380 0 l 1
 380 -216 l 1
 300 -216 l 1
 300 0 l 1
 80 0 l 1
 0 84 l 1
EndSplineSet
Validated: 1
EndChar

StartChar: copyright
Encoding: 169 169 154
Width: 770
VWidth: 1024
Flags: W
HStem: 0 84<80 450> 134 80<226 380> 376 80<226 380> 496 84<80 450>
VStem: 0 80<84 496> 150 76<214 376> 450 80<84 496>
LayerCount: 2
Fore
SplineSet
150 214 m 1
 150 376 l 1
 226 456 l 1
 380 456 l 9
 380 376 l 1
 226 376 l 1
 226 214 l 1
 380 214 l 9
 380 134 l 17
 226 134 l 1
 150 214 l 1
0 84 m 1
 0 496 l 1
 80 580 l 25
 450 580 l 1
 530 496 l 1
 530 84 l 9
 450 0 l 1
 80 0 l 1
 0 84 l 1
80 84 m 1
 450 84 l 1
 450 496 l 1
 80 496 l 1
 80 84 l 1
EndSplineSet
Validated: 1
EndChar

StartChar: registered
Encoding: 174 174 155
Width: 770
VWidth: 1024
Flags: W
HStem: 0 84<80 450> 376 80<226 380> 496 84<80 450>
VStem: 0 80<84 496> 150 76<134 376> 450 80<84 496>
LayerCount: 2
Fore
SplineSet
150 134 m 1
 150 376 l 1
 226 456 l 1
 380 456 l 9
 380 376 l 1
 226 376 l 1
 226 134 l 1
 150 134 l 1
0 84 m 1
 0 496 l 1
 80 580 l 25
 450 580 l 1
 530 496 l 1
 530 84 l 9
 450 0 l 1
 80 0 l 1
 0 84 l 1
80 84 m 1
 450 84 l 1
 450 496 l 1
 80 496 l 1
 80 84 l 1
EndSplineSet
Validated: 1
EndChar

StartChar: ellipsis
Encoding: 8230 8230 156
Width: 560
VWidth: 1024
Flags: W
HStem: 0 84<0 80 190 270 380 460>
VStem: 0 80<0 84> 190 80<0 84> 380 80<0 84>
CounterMasks: 1 70
LayerCount: 2
Fore
SplineSet
380 0 m 1
 380 84 l 1
 460 84 l 1
 460 0 l 1
 380 0 l 1
190 0 m 1
 190 84 l 1
 270 84 l 1
 270 0 l 1
 190 0 l 1
0 0 m 1
 0 84 l 1
 80 84 l 1
 80 0 l 1
 0 0 l 1
EndSplineSet
Validated: 1
EndChar

StartChar: guilsinglleft
Encoding: 8249 8249 157
Width: 350
VWidth: 1024
Flags: W
HStem: 106 84<140 250> 390 84<140 250>
VStem: 60 80<190 390>
LayerCount: 2
Fore
SplineSet
60 190 m 1
 60 390 l 1
 140 474 l 1
 250 474 l 9
 250 390 l 1
 140 390 l 1
 140 190 l 1
 250 190 l 9
 250 106 l 17
 140 106 l 1
 60 190 l 1
EndSplineSet
Validated: 1
EndChar

StartChar: guilsinglright
Encoding: 8250 8250 158
Width: 350
VWidth: 1024
Flags: W
HStem: 106 84<60 170> 390 84<60 170>
VStem: 170 80<190 390>
LayerCount: 2
Fore
SplineSet
60 106 m 9
 60 190 l 17
 170 190 l 1
 170 390 l 1
 60 390 l 1
 60 474 l 17
 170 474 l 1
 250 390 l 1
 250 190 l 1
 170 106 l 1
 60 106 l 9
EndSplineSet
Validated: 1
EndChar

StartChar: trademark
Encoding: 8482 8482 159
Width: 512
VWidth: 1024
Flags: W
HStem: 544 32<0 84 112 196 248 312 340 404>
VStem: 84 28<364 544> 220 28<364 544> 312 28<364 544> 404 28<364 544>
LayerCount: 2
Fore
SplineSet
220 364 m 25
 220 544 l 25
 248 576 l 25
 404 576 l 25
 432 544 l 25
 432 364 l 25
 404 364 l 25
 404 544 l 25
 340 544 l 25
 340 364 l 25
 312 364 l 25
 312 544 l 25
 248 544 l 25
 248 364 l 25
 220 364 l 25
0 544 m 25
 0 576 l 25
 196 576 l 25
 196 544 l 25
 112 544 l 25
 112 364 l 25
 84 364 l 25
 84 544 l 25
 0 544 l 25
EndSplineSet
Validated: 1
EndChar

StartChar: quotesinglbase
Encoding: 8218 8218 160
Width: 370
VWidth: 1024
Flags: W
HStem: -84 84<0 110>
VStem: 110 80<0 136>
LayerCount: 2
Fore
SplineSet
0 -84 m 1
 0 0 l 17
 110 0 l 1
 110 136 l 1
 190 136 l 1
 190 0 l 1
 110 -84 l 1
 0 -84 l 1
EndSplineSet
Validated: 1
EndChar

StartChar: quotedblbase
Encoding: 8222 8222 161
Width: 250
VWidth: 1024
Flags: W
HStem: 0 204
VStem: 0 80<84 204> 160 80<84 204>
LayerCount: 2
Fore
SplineSet
160 0 m 1
 160 204 l 1
 240 204 l 1
 240 84 l 1
 160 0 l 1
0 0 m 1
 0 204 l 1
 80 204 l 1
 80 84 l 1
 0 0 l 1
EndSplineSet
Validated: 1
EndChar

StartChar: quoteright
Encoding: 8217 8217 162
Width: 250
VWidth: 1024
Flags: W
HStem: 376 204<0 80>
VStem: 0 80<376 580>
LayerCount: 2
Fore
SplineSet
0 376 m 1
 0 580 l 1
 80 580 l 1
 80 376 l 1
 0 376 l 1
EndSplineSet
Validated: 1
EndChar

StartChar: guillemotleft
Encoding: 171 171 163
Width: 800
VWidth: 1024
Flags: W
HStem: 0 84<270 380 530 640> 248 84<0 190 340 450> 496 84<270 380 530 640>
VStem: 190 80<84 248 332 496> 450 80<84 248 332 496>
CounterMasks: 1 e0
LayerCount: 2
Fore
SplineSet
340 248 m 1
 340 332 l 1
 450 332 l 1
 450 496 l 1
 530 580 l 1
 640 580 l 1
 640 496 l 1
 530 496 l 1
 530 84 l 1
 640 84 l 1
 640 0 l 1
 530 0 l 1
 450 84 l 1
 450 248 l 1
 340 248 l 1
0 248 m 1
 0 332 l 1
 190 332 l 1
 190 496 l 1
 270 580 l 1
 380 580 l 1
 380 496 l 1
 270 496 l 1
 270 84 l 1
 380 84 l 1
 380 0 l 1
 270 0 l 1
 190 84 l 1
 190 248 l 1
 0 248 l 1
EndSplineSet
Validated: 1
EndChar

StartChar: guillemotright
Encoding: 187 187 164
Width: 800
VWidth: 1024
Flags: W
HStem: 0 84<0 110 260 370> 248 84<190 300 450 640> 496 84<0 110 260 370>
VStem: 110 80<84 248 332 496> 370 80<84 248 332 496>
CounterMasks: 1 e0
LayerCount: 2
Fore
SplineSet
0 0 m 1
 0 84 l 1
 110 84 l 1
 110 496 l 1
 0 496 l 1
 0 580 l 1
 110 580 l 1
 190 496 l 1
 190 332 l 1
 300 332 l 1
 300 248 l 1
 190 248 l 1
 190 84 l 1
 110 0 l 1
 0 0 l 1
260 0 m 1
 260 84 l 1
 370 84 l 1
 370 496 l 1
 260 496 l 1
 260 580 l 1
 370 580 l 1
 450 496 l 1
 450 332 l 1
 640 332 l 1
 640 248 l 1
 450 248 l 1
 450 84 l 1
 370 0 l 1
 260 0 l 1
EndSplineSet
Validated: 1
EndChar

StartChar: j
Encoding: 106 106 165
Width: 700
VWidth: 1024
Flags: W
HStem: -216 84<80 450> 560 20G<450 530> 724 84<450 530>
VStem: 0 80<-132 -18> 450 80<-132 580 724 808>
LayerCount: 2
Fore
SplineSet
450 724 m 1
 450 808 l 1
 530 808 l 1
 530 724 l 1
 450 724 l 1
0 -132 m 1
 0 -18 l 9
 80 -18 l 17
 80 -132 l 1
 450 -132 l 1
 450 580 l 1
 530 580 l 17
 530 -132 l 1
 450 -216 l 1
 80 -216 l 25
 0 -132 l 1
EndSplineSet
Validated: 1
EndChar

StartChar: i
Encoding: 105 105 166
Width: 450
VWidth: 1024
Flags: W
HStem: 0 84<170 360> 560 20G<90 170> 724 84<90 170>
VStem: 90 80<84 580 724 808>
LayerCount: 2
Fore
SplineSet
90 724 m 1
 90 808 l 1
 170 808 l 1
 170 724 l 1
 90 724 l 1
90 84 m 1
 90 580 l 25
 170 580 l 1
 170 84 l 1
 360 84 l 1
 360 0 l 1
 170 0 l 1
 90 84 l 1
EndSplineSet
Validated: 1
EndChar

StartChar: g
Encoding: 103 103 167
Width: 700
VWidth: 1024
Flags: W
HStem: -216 84<80 450> 0 84<80 450> 496 84<80 450>
VStem: 0 80<84 496> 450 80<-132 0 84 496>
LayerCount: 2
Fore
SplineSet
0 84 m 1
 0 496 l 1
 80 580 l 1
 450 580 l 1
 530 496 l 1
 530 -132 l 1
 450 -216 l 1
 80 -216 l 1
 80 -132 l 1
 450 -132 l 1
 450 0 l 1
 80 0 l 1
 0 84 l 1
80 84 m 1
 450 84 l 9
 450 496 l 17
 80 496 l 1
 80 84 l 1
EndSplineSet
Validated: 1
EndChar

StartChar: G
Encoding: 71 71 168
Width: 700
VWidth: 1024
Flags: W
HStem: 0 84<80 470> 248 84<350 470> 496 84<80 530>
VStem: 0 80<84 496> 470 80<84 248>
CounterMasks: 1 e0
LayerCount: 2
Fore
SplineSet
0 84 m 1
 0 496 l 1
 80 580 l 1
 530 580 l 1
 530 496 l 1
 80 496 l 1
 80 84 l 1
 470 84 l 1
 470 248 l 1
 350 248 l 9
 350 332 l 1
 470 332 l 1
 550 248 l 17
 550 84 l 1
 470 0 l 1
 80 0 l 25
 0 84 l 1
EndSplineSet
Validated: 1
EndChar

StartChar: K
Encoding: 75 75 169
Width: 690
VWidth: 1024
Flags: W
HStem: 0 84<420 530> 248 84<80 340> 496 84<420 530>
VStem: 0 80<0 248 332 580> 340 80<84 248 332 496>
CounterMasks: 1 e0
LayerCount: 2
Fore
SplineSet
0 0 m 1
 0 580 l 1
 80 580 l 1
 80 332 l 1
 340 332 l 1
 340 496 l 1
 420 580 l 1
 530 580 l 1
 530 496 l 1
 420 496 l 1
 420 84 l 1
 530 84 l 1
 530 0 l 1
 420 0 l 1
 340 84 l 1
 340 248 l 1
 80 248 l 1
 80 0 l 1
 0 0 l 1
EndSplineSet
Validated: 1
EndChar

StartChar: k
Encoding: 107 107 170
Width: 690
VWidth: 1024
Flags: W
HStem: 0 84<420 530> 248 84<80 340> 496 84<420 530>
VStem: 0 80<0 248 332 580> 340 80<84 248 332 496>
CounterMasks: 1 e0
LayerCount: 2
Fore
SplineSet
0 0 m 1
 0 580 l 1
 80 580 l 1
 80 332 l 1
 340 332 l 1
 340 496 l 1
 420 580 l 1
 530 580 l 1
 530 496 l 1
 420 496 l 1
 420 84 l 1
 530 84 l 1
 530 0 l 1
 420 0 l 1
 340 84 l 1
 340 248 l 1
 80 248 l 1
 80 0 l 1
 0 0 l 1
EndSplineSet
Validated: 1
EndChar

StartChar: at
Encoding: 64 64 171
Width: 700
VWidth: 1024
Flags: W
HStem: 0 84<80 530> 134 80<226 304 380 450> 376 80<226 304> 496 84<80 450>
VStem: 0 80<84 496> 150 76<214 376> 304 76<214 376> 450 80<218 496>
LayerCount: 2
Fore
SplineSet
226 214 m 1
 304 214 l 1
 304 376 l 1
 226 376 l 1
 226 214 l 1
0 84 m 1
 0 496 l 1
 80 580 l 25
 450 580 l 1
 530 496 l 1
 530 218 l 1
 450 134 l 1
 226 134 l 1
 150 214 l 1
 150 376 l 1
 226 456 l 1
 304 456 l 1
 380 376 l 1
 380 214 l 1
 450 214 l 1
 450 496 l 1
 80 496 l 1
 80 84 l 1
 530 84 l 1
 530 0 l 1
 80 0 l 1
 0 84 l 1
EndSplineSet
Validated: 1
EndChar

StartChar: Q
Encoding: 81 81 172
Width: 660
VWidth: 1024
Flags: W
HStem: 0 84<80 290 370 450> 496 84<80 450>
VStem: 0 80<84 496> 290 80<-92 0 84 276> 450 80<84 496>
LayerCount: 2
Fore
SplineSet
0 84 m 1
 0 496 l 1
 80 580 l 1
 450 580 l 1
 530 496 l 1
 530 84 l 1
 450 0 l 1
 370 0 l 1
 370 -92 l 1
 290 -176 l 1
 290 -0 l 1
 80 0 l 1
 0 84 l 1
80 84 m 1
 290 84 l 1
 290 276 l 1
 370 276 l 1
 370 84 l 1
 450 84 l 1
 450 496 l 1
 80 496 l 1
 80 84 l 1
EndSplineSet
Validated: 1
EndChar

StartChar: multiply
Encoding: 215 215 173
Width: 700
VWidth: 1024
Flags: W
HStem: 0 21G<0 80 450 530> 136 84<80 225 305 450> 376 84<80 225 305 450> 560 20G<0 80 450 530>
VStem: 0 80<0 136 460 580> 225 80<220 376> 450 80<0 136 460 580>
CounterMasks: 1 0e
LayerCount: 2
Fore
SplineSet
0 0 m 1
 0 136 l 1
 80 220 l 1
 225 220 l 1
 225 376 l 1
 80 376 l 1
 0 460 l 1
 0 580 l 1
 80 580 l 1
 80 460 l 1
 450 460 l 1
 450 580 l 1
 530 580 l 1
 530 460 l 1
 450 376 l 1
 305 376 l 1
 305 220 l 1
 450 220 l 1
 530 136 l 1
 530 0 l 1
 450 0 l 1
 450 136 l 1
 80 136 l 1
 80 0 l 1
 0 0 l 1
EndSplineSet
Validated: 1
EndChar

StartChar: divide
Encoding: 247 247 174
Width: 650
VWidth: 1024
Flags: W
HStem: 84 84<225 305> 248 84<0 530> 412 84<225 305>
VStem: 225 80<84 168 412 496>
CounterMasks: 1 e0
LayerCount: 2
Fore
SplineSet
225 412 m 1
 225 496 l 1
 305 496 l 1
 305 412 l 1
 225 412 l 1
225 84 m 1
 225 168 l 1
 305 168 l 1
 305 84 l 1
 225 84 l 1
0 248 m 1
 0 332 l 1
 530 332 l 1
 530 248 l 1
 0 248 l 1
EndSplineSet
Validated: 1
EndChar

StartChar: numbersign
Encoding: 35 35 175
Width: 690
VWidth: 1024
Flags: W
HStem: 0 21G<114 194 336 416> 136 84<0 114 194 336 416 530> 376 84<0 114 194 336 416 530> 560 20G<114 194 336 416>
VStem: 114 80<0 136 220 376 460 580> 336 80<0 136 220 376 460 580>
LayerCount: 2
Fore
SplineSet
0 136 m 1
 0 220 l 1
 114 220 l 1
 114 376 l 1
 0 376 l 1
 0 460 l 1
 114 460 l 1
 114 580 l 1
 194 580 l 1
 194 460 l 1
 336 460 l 1
 336 580 l 1
 416 580 l 1
 416 460 l 1
 530 460 l 1
 530 376 l 1
 416 376 l 1
 416 220 l 1
 530 220 l 1
 530 136 l 1
 416 136 l 1
 416 0 l 1
 336 0 l 1
 336 136 l 1
 194 136 l 1
 194 0 l 1
 114 0 l 1
 114 136 l 1
 0 136 l 1
194 220 m 1
 336 220 l 1
 336 376 l 1
 194 376 l 1
 194 220 l 1
EndSplineSet
Validated: 1
EndChar

StartChar: ampersand
Encoding: 38 38 176
Width: 700
VWidth: 1024
Flags: W
HStem: 0 84<102 225 305 418> 248 84<102 225 305 428> 496 84<327 428>
VStem: 0 80<110 222> 225 80<-120 0 84 248 332 470> 450 80<358 470>
CounterMasks: 1 fc
LayerCount: 2
Fore
SplineSet
0 110 m 1
 0 222 l 1
 102 332 l 1
 225 332 l 1
 225 470 l 1
 327 580 l 1
 428 580 l 1
 530 470 l 1
 530 358 l 1
 428 248 l 1
 305 248 l 1
 305 84 l 1
 418 84 l 1
 418 0 l 1
 305 -0 l 1
 305 -120 l 1
 225 -120 l 1
 225 0 l 1
 102 0 l 1
 0 110 l 1
80 84 m 1
 225 84 l 1
 225 248 l 1
 80 248 l 1
 80 84 l 1
305 332 m 1
 450 332 l 1
 450 496 l 1
 305 496 l 1
 305 332 l 1
EndSplineSet
Validated: 1
EndChar

StartChar: ograve
Encoding: 242 242 177
Width: 700
VWidth: 1024
Flags: W
HStem: 0 84<80 450> 496 84<80 450> 724 84<115 225>
VStem: 0 80<84 496> 225 80<628 724> 450 80<84 496>
CounterMasks: 1 1c
LayerCount: 2
Fore
SplineSet
115 724 m 1
 115 808 l 1
 225 808 l 1
 305 724 l 1
 305 628 l 1
 225 628 l 1
 225 724 l 1
 115 724 l 1
0 84 m 1
 0 496 l 1
 80 580 l 25
 450 580 l 1
 530 496 l 1
 530 84 l 9
 450 0 l 1
 80 0 l 1
 0 84 l 1
80 84 m 1
 450 84 l 1
 450 496 l 1
 80 496 l 1
 80 84 l 1
EndSplineSet
Validated: 1
EndChar

StartChar: oacute
Encoding: 243 243 178
Width: 700
VWidth: 1024
Flags: W
HStem: 0 84<80 450> 496 84<80 450> 724 84<305 415>
VStem: 0 80<84 496> 225 80<628 724> 450 80<84 496>
CounterMasks: 1 1c
LayerCount: 2
Fore
SplineSet
225 628 m 1
 225 724 l 1
 305 808 l 1
 415 808 l 1
 415 724 l 1
 305 724 l 1
 305 628 l 1
 225 628 l 1
0 84 m 1
 0 496 l 1
 80 580 l 25
 450 580 l 1
 530 496 l 1
 530 84 l 9
 450 0 l 1
 80 0 l 1
 0 84 l 1
80 84 m 1
 450 84 l 1
 450 496 l 1
 80 496 l 1
 80 84 l 1
EndSplineSet
Validated: 1
EndChar

StartChar: ugrave
Encoding: 249 249 179
Width: 700
VWidth: 1024
Flags: W
HStem: 0 84<80 450> 560 20G<0 80 450 530> 724 84<115 225>
VStem: 0 80<84 580> 225 80<628 724> 450 80<84 580>
CounterMasks: 1 1c
LayerCount: 2
Fore
SplineSet
115 724 m 1
 115 808 l 1
 225 808 l 1
 305 724 l 1
 305 628 l 1
 225 628 l 1
 225 724 l 1
 115 724 l 1
0 84 m 1
 0 580 l 25
 80 580 l 1
 80 84 l 25
 450 84 l 25
 450 580 l 1
 530 580 l 1
 530 84 l 25
 450 0 l 1
 80 0 l 25
 0 84 l 1
EndSplineSet
Validated: 1
EndChar

StartChar: uacute
Encoding: 250 250 180
Width: 700
VWidth: 1024
Flags: W
HStem: 0 84<80 450> 560 20G<0 80 450 530> 724 84<305 415>
VStem: 0 80<84 580> 225 80<628 724> 450 80<84 580>
CounterMasks: 1 1c
LayerCount: 2
Fore
SplineSet
225 628 m 1
 225 724 l 1
 305 808 l 1
 415 808 l 1
 415 724 l 1
 305 724 l 1
 305 628 l 1
 225 628 l 1
0 84 m 1
 0 580 l 25
 80 580 l 1
 80 84 l 25
 450 84 l 25
 450 580 l 1
 530 580 l 1
 530 84 l 25
 450 0 l 1
 80 0 l 25
 0 84 l 1
EndSplineSet
Validated: 1
EndChar

StartChar: grave
Encoding: 96 96 181
Width: 300
VWidth: 1024
Flags: W
HStem: 724 84<0 110>
VStem: 110 80<628 724>
LayerCount: 2
Fore
SplineSet
0 724 m 1
 0 808 l 1
 110 808 l 1
 190 724 l 1
 190 628 l 1
 110 628 l 1
 110 724 l 1
 0 724 l 1
  Spiro
    0 724 v
    0 808 v
    110 808 v
    190 724 v
    190 628 v
    110 628 v
    110 724 v
    0 0 z
  EndSpiro
EndSplineSet
Validated: 1
EndChar

StartChar: Euro
Encoding: 8364 8364 182
Width: 670
VWidth: 1024
Flags: W
HStem: 0 84<190 640> 164 84<0 110 190 480> 332 84<0 110 190 480> 496 84<190 640>
VStem: 110 80<84 164 248 332 416 496>
LayerCount: 2
Fore
SplineSet
0 164 m 1
 0 248 l 1
 110 248 l 1
 110 332 l 1
 0 332 l 1
 0 416 l 1
 110 416 l 1
 110 496 l 1
 190 580 l 1
 640 580 l 1
 640 496 l 1
 190 496 l 1
 190 416 l 1
 480 416 l 1
 480 332 l 1
 190 332 l 1
 190 248 l 1
 480 248 l 1
 480 164 l 1
 190 164 l 1
 190 84 l 1
 640 84 l 1
 640 0 l 1
 190 0 l 1
 110 84 l 1
 110 164 l 1
 0 164 l 1
EndSplineSet
Validated: 1
EndChar

StartChar: ccedilla
Encoding: 231 231 183
Width: 660
VWidth: 1024
Flags: W
HStem: 0 84<80 255 342 530> 496 84<80 530>
VStem: 0 80<84 496> 255 87<-65 0>
LayerCount: 2
Fore
SplineSet
0 84 m 1
 0 496 l 1
 80 580 l 1
 530 580 l 1
 530 496 l 1
 80 496 l 1
 80 84 l 1
 530 84 l 1
 530 0 l 1
 342 0 l 1
 342 -65 l 1
 255 -132 l 1
 255 0 l 1
 80 0 l 1
 0 84 l 1
EndSplineSet
Validated: 1
EndChar

StartChar: OE
Encoding: 338 338 184
Width: 774
VWidth: 1024
Flags: W
HStem: 0 84<80 322 402 724> 248 84<402 724> 496 84<80 322 402 724>
VStem: 0 80<84 496> 322 80<84 248 332 496>
CounterMasks: 1 e0
LayerCount: 2
Fore
SplineSet
0 84 m 1
 0 496 l 1
 80 580 l 1
 322 580 l 1
 362 538 l 1
 402 580 l 1
 724 580 l 1
 724 496 l 1
 402 496 l 1
 402 332 l 1
 724 332 l 1
 724 248 l 1
 402 248 l 1
 402 84 l 1
 724 84 l 1
 724 0 l 1
 402 0 l 1
 362 42 l 1
 322 0 l 1
 80 0 l 1
 0 84 l 1
80 84 m 1
 322 84 l 1
 322 496 l 1
 80 496 l 1
 80 84 l 1
EndSplineSet
Validated: 1
EndChar

StartChar: oe
Encoding: 339 339 185
Width: 832
VWidth: 1024
Flags: W
HStem: 0 84<80 336 416 752> 248 84<416 672> 496 84<80 336 416 672>
VStem: 0 80<84 496> 336 80<84 248 332 496> 672 80<332 496>
CounterMasks: 1 fc
LayerCount: 2
Fore
SplineSet
0 84 m 1
 0 496 l 1
 80 580 l 1
 336 580 l 1
 376 538 l 1
 416 580 l 1
 672 580 l 1
 752 496 l 1
 752 332 l 1
 672 248 l 1
 416 248 l 1
 416 84 l 1
 752 84 l 1
 752 0 l 1
 416 0 l 1
 376 42 l 1
 336 0 l 1
 80 0 l 1
 0 84 l 1
416 332 m 1
 672 332 l 1
 672 496 l 1
 416 496 l 1
 416 332 l 1
80 84 m 1
 336 84 l 1
 336 496 l 1
 80 496 l 1
 80 84 l 1
EndSplineSet
Validated: 1
EndChar

StartChar: asciicircum
Encoding: 94 94 186
Width: 410
VWidth: 1024
Flags: W
HStem: 732 76<76 224>
VStem: 0 76<656 732> 224 76<656 732>
LayerCount: 2
Fore
SplineSet
0 656 m 25
 0 732 l 1
 76 808 l 25
 224 808 l 25
 300 732 l 25
 300 656 l 25
 224 656 l 25
 224 732 l 25
 76 732 l 25
 76 656 l 1
 0 656 l 25
EndSplineSet
Validated: 1
EndChar

StartChar: ocircumflex
Encoding: 244 244 187
Width: 700
VWidth: 1024
Flags: W
HStem: 0 84<80 450> 496 84<80 450> 732 76<191 339>
VStem: 0 80<84 496> 115 76<656 732> 339 76<656 732> 450 80<84 496>
LayerCount: 2
Fore
SplineSet
115 656 m 25
 115 732 l 1
 191 808 l 25
 339 808 l 25
 415 732 l 25
 415 656 l 25
 339 656 l 25
 339 732 l 25
 191 732 l 25
 191 656 l 1
 115 656 l 25
0 84 m 1
 0 496 l 1
 80 580 l 25
 450 580 l 1
 530 496 l 1
 530 84 l 9
 450 0 l 1
 80 0 l 1
 0 84 l 1
80 84 m 1
 450 84 l 1
 450 496 l 1
 80 496 l 1
 80 84 l 1
EndSplineSet
Validated: 1
EndChar

StartChar: ucircumflex
Encoding: 251 251 188
Width: 700
VWidth: 1024
Flags: W
HStem: 0 84<80 450> 560 20G<0 80 450 530> 732 76<191 339>
VStem: 0 80<84 580> 115 76<656 732> 339 76<656 732> 450 80<84 580>
LayerCount: 2
Fore
SplineSet
115 656 m 25
 115 732 l 1
 191 808 l 25
 339 808 l 25
 415 732 l 25
 415 656 l 25
 339 656 l 25
 339 732 l 25
 191 732 l 25
 191 656 l 1
 115 656 l 25
0 84 m 1
 0 580 l 25
 80 580 l 1
 80 84 l 25
 450 84 l 25
 450 580 l 1
 530 580 l 1
 530 84 l 25
 450 0 l 1
 80 0 l 25
 0 84 l 1
EndSplineSet
Validated: 1
EndChar

StartChar: asciitilde
Encoding: 126 126 189
Width: 490
VWidth: 1024
Flags: W
HStem: 648 80<250 300> 728 80<80 138>
VStem: 0 80<648 728> 300 80<728 808>
LayerCount: 2
Fore
SplineSet
0 648 m 25xb0
 0 728 l 1
 80 808 l 25
 164 808 l 1x70
 250 728 l 1
 300 728 l 1xb0
 300 808 l 1
 380 808 l 1
 380 728 l 1x70
 300 648 l 1
 224 648 l 25xb0
 138 728 l 25
 80 728 l 25x70
 80 648 l 1
 0 648 l 25xb0
EndSplineSet
Validated: 1
EndChar

StartChar: otilde
Encoding: 245 245 190
Width: 700
VWidth: 1024
Flags: W
HStem: 0 84<80 450> 496 84<80 450> 648 80<325 375> 728 80<155 213>
VStem: 0 80<84 496> 75 80<648 728> 375 80<728 808> 450 80<84 496>
LayerCount: 2
Fore
SplineSet
75 648 m 25xe6
 75 728 l 1
 155 808 l 25
 239 808 l 1xd6
 325 728 l 1
 375 728 l 1xe6
 375 808 l 1
 455 808 l 1
 455 728 l 1xd6
 375 648 l 1
 299 648 l 25xe6
 213 728 l 25
 155 728 l 25xd6
 155 648 l 1
 75 648 l 25xe6
0 84 m 1xc9
 0 496 l 1
 80 580 l 25
 450 580 l 1
 530 496 l 1
 530 84 l 9
 450 0 l 1
 80 0 l 1
 0 84 l 1xc9
80 84 m 1
 450 84 l 1
 450 496 l 1
 80 496 l 1
 80 84 l 1
EndSplineSet
Validated: 1
EndChar

StartChar: ntilde
Encoding: 241 241 191
Width: 700
VWidth: 1024
Flags: W
HStem: 0 21G<0 80 450 530> 496 84<80 450> 648 80<325 375> 728 80<155 213>
VStem: 0 80<0 496> 75 80<648 728> 375 80<728 808> 450 80<0 496>
LayerCount: 2
Fore
SplineSet
75 648 m 25xe6
 75 728 l 1
 155 808 l 25
 239 808 l 1xd6
 325 728 l 1
 375 728 l 1xe6
 375 808 l 1
 455 808 l 1
 455 728 l 1xd6
 375 648 l 1
 299 648 l 25xe6
 213 728 l 25
 155 728 l 25xd6
 155 648 l 1
 75 648 l 25xe6
0 0 m 25xc9
 0 496 l 1
 80 580 l 25
 450 580 l 1
 530 496 l 25
 530 0 l 1
 450 0 l 1
 450 496 l 25
 80 496 l 25
 80 0 l 1
 0 0 l 25xc9
EndSplineSet
Validated: 1
EndChar

StartChar: uni00AD
Encoding: 173 173 192
Width: 700
VWidth: 1024
Flags: W
HStem: 248 84<0 300>
VStem: 0 300<248 332>
LayerCount: 2
Fore
SplineSet
0 248 m 1
 0 332 l 1
 300 332 l 1
 300 248 l 1
 0 248 l 1
EndSplineSet
Validated: 1
EndChar

StartChar: udieresis
Encoding: 252 252 193
Width: 700
VWidth: 1024
Flags: W
HStem: 0 84<80 450> 560 20G<0 80 450 530> 728 80<111 191 339 419>
VStem: 0 80<84 580> 111 80<728 808> 339 80<728 808> 450 80<84 580>
LayerCount: 2
Fore
SplineSet
339 728 m 1
 339 808 l 1
 419 808 l 1
 419 728 l 1
 339 728 l 1
111 728 m 1
 111 808 l 1
 191 808 l 1
 191 728 l 1
 111 728 l 1
0 84 m 1
 0 580 l 25
 80 580 l 1
 80 84 l 25
 450 84 l 25
 450 580 l 1
 530 580 l 1
 530 84 l 25
 450 0 l 1
 80 0 l 25
 0 84 l 1
EndSplineSet
Validated: 1
EndChar

StartChar: odieresis
Encoding: 246 246 194
Width: 700
VWidth: 1024
Flags: W
HStem: 0 84<80 450> 496 84<80 450> 728 80<111 191 339 419>
VStem: 0 80<84 496> 111 80<728 808> 339 80<728 808> 450 80<84 496>
LayerCount: 2
Fore
SplineSet
339 728 m 1
 339 808 l 1
 419 808 l 1
 419 728 l 1
 339 728 l 1
111 728 m 1
 111 808 l 1
 191 808 l 1
 191 728 l 1
 111 728 l 1
0 84 m 1
 0 496 l 1
 80 580 l 25
 450 580 l 1
 530 496 l 1
 530 84 l 9
 450 0 l 1
 80 0 l 1
 0 84 l 1
80 84 m 1
 450 84 l 1
 450 496 l 1
 80 496 l 1
 80 84 l 1
EndSplineSet
Validated: 1
EndChar

StartChar: uniE005
Encoding: 57349 57349 195
Width: 670
VWidth: 1024
Flags: W
HStem: 0 21G<225 305> 376 84<80 225 305 450> 560 20G<0 80 450 530> 728 80<111 191 339 419>
VStem: 0 80<460 580> 111 80<728 808> 225 80<0 376> 339 80<728 808> 450 80<460 580>
LayerCount: 2
Fore
SplineSet
339 728 m 1
 339 808 l 1
 419 808 l 1
 419 728 l 1
 339 728 l 1
111 728 m 1
 111 808 l 1
 191 808 l 1
 191 728 l 1
 111 728 l 1
0 460 m 1
 0 580 l 1
 80 580 l 1
 80 460 l 25
 450 460 l 25
 450 580 l 1
 530 580 l 1
 530 460 l 25
 450 376 l 1
 305 376 l 9
 305 0 l 1
 225 0 l 1
 225 376 l 1
 80 376 l 1
 0 460 l 1
EndSplineSet
Validated: 1
EndChar

StartChar: uniE006
Encoding: 57350 57350 196
Width: 1230
VWidth: 1024
Flags: W
HStem: 0 84<0 450 570 1020> 248 84<80 450 650 1020> 496 84<80 530 650 1100>
VStem: 0 80<332 496> 450 80<84 248> 570 80<332 496> 1020 80<84 248>
CounterMasks: 1 e0
LayerCount: 2
Fore
SplineSet
570 0 m 1
 570 84 l 17
 1020 84 l 1
 1020 248 l 9
 650 248 l 1
 570 332 l 1
 570 496 l 1
 650 580 l 1
 1100 580 l 1
 1100 496 l 1
 650 496 l 1
 650 332 l 1
 1020 332 l 17
 1100 248 l 1
 1100 84 l 1
 1020 0 l 1
 570 0 l 1
0 0 m 1
 0 84 l 17
 450 84 l 1
 450 248 l 9
 80 248 l 1
 0 332 l 1
 0 496 l 1
 80 580 l 1
 530 580 l 1
 530 496 l 1
 80 496 l 1
 80 332 l 1
 450 332 l 17
 530 248 l 1
 530 84 l 1
 450 0 l 1
 0 0 l 1
EndSplineSet
Validated: 1
EndChar

StartChar: uniE007
Encoding: 57351 57351 197
Width: 250
VWidth: 1024
Flags: W
HStem: -216 21G<0 80> 496 84<0 80>
VStem: 0 80<-216 280 496 580>
LayerCount: 2
Fore
SplineSet
0 496 m 1
 0 580 l 1
 80 580 l 1
 80 496 l 1
 0 496 l 1
0 -216 m 1
 0 364 l 1
 80 280 l 1
 80 -216 l 1
 0 -216 l 1
EndSplineSet
Validated: 1
EndChar

StartChar: uniE008
Encoding: 57352 57352 198
Width: 470
VWidth: 1024
Flags: W
HStem: 556 84<80 160> 724 84<80 160>
VStem: 0 80<640 724> 160 80<640 724>
LayerCount: 2
Fore
SplineSet
0 640 m 1
 0 724 l 1
 80 808 l 25
 160 808 l 1
 240 724 l 1
 240 640 l 9
 160 556 l 1
 80 556 l 1
 0 640 l 1
80 640 m 1
 160 640 l 1
 160 724 l 1
 80 724 l 1
 80 640 l 1
EndSplineSet
Validated: 1
EndChar

StartChar: florin
Encoding: 402 402 199
Width: 660
VWidth: 1024
Flags: W
HStem: -216 21G<225 305> 496 84<80 225 305 530> 724 84<305 530>
VStem: 225 80<-216 496 580 724>
LayerCount: 2
Fore
SplineSet
80 496 m 1
 80 580 l 1
 225 580 l 1
 225 724 l 1
 305 808 l 1
 530 808 l 1
 530 724 l 1
 305 724 l 1
 305 580 l 1
 530 580 l 1
 530 496 l 1
 305 496 l 1
 305 -216 l 1
 225 -216 l 1
 225 496 l 1
 80 496 l 1
EndSplineSet
Validated: 1
EndChar

StartChar: circumflex
Encoding: 710 710 200
Width: 410
VWidth: 1024
Flags: W
HStem: 732 76<76 224>
VStem: 0 76<656 732> 224 76<656 732>
LayerCount: 2
Fore
SplineSet
0 656 m 25
 0 732 l 1
 76 808 l 25
 224 808 l 25
 300 732 l 25
 300 656 l 25
 224 656 l 25
 224 732 l 25
 76 732 l 25
 76 656 l 1
 0 656 l 25
EndSplineSet
Validated: 1
EndChar

StartChar: tilde
Encoding: 732 732 201
Width: 490
VWidth: 1024
Flags: W
HStem: 648 80<250 300> 728 80<80 138>
VStem: 0 80<648 728> 300 80<728 808>
LayerCount: 2
Fore
SplineSet
0 648 m 25xb0
 0 728 l 1
 80 808 l 25
 164 808 l 1x70
 250 728 l 1
 300 728 l 1xb0
 300 808 l 1
 380 808 l 1
 380 728 l 1x70
 300 648 l 1
 224 648 l 25xb0
 138 728 l 25
 80 728 l 25x70
 80 648 l 1
 0 648 l 25xb0
EndSplineSet
Validated: 1
EndChar

StartChar: cedilla
Encoding: 184 184 202
Width: 370
VWidth: 1024
Flags: W
HStem: -84 84<0 110>
VStem: 110 80<0 136>
LayerCount: 2
Fore
SplineSet
0 -84 m 1
 0 0 l 17
 110 0 l 1
 110 136 l 1
 190 136 l 1
 190 0 l 1
 110 -84 l 1
 0 -84 l 1
EndSplineSet
Validated: 1
EndChar
